<mxfile host="65bd71144e" pages="5">
    <diagram id="prtHgNgQTEPvFCAcTncT" name="EAP">
        <mxGraphModel dx="1075" dy="791" grid="1" gridSize="10" guides="1" tooltips="1" connect="1" arrows="0" fold="1" page="1" pageScale="1" pageWidth="827" pageHeight="1169" math="0" shadow="0">
            <root>
                <mxCell id="0"/>
                <mxCell id="1" parent="0"/>
                <mxCell id="MXugya-MfVNxB4QQbrh8-13" value="" style="edgeStyle=elbowEdgeStyle;rounded=0;orthogonalLoop=1;jettySize=auto;html=1;elbow=vertical;endArrow=none;strokeColor=#23445D;fontColor=#000000;endFill=0;strokeWidth=4;" parent="1" source="MXugya-MfVNxB4QQbrh8-9" target="MXugya-MfVNxB4QQbrh8-12" edge="1">
                    <mxGeometry relative="1" as="geometry"/>
                </mxCell>
                <mxCell id="MXugya-MfVNxB4QQbrh8-15" value="" style="edgeStyle=elbowEdgeStyle;rounded=0;orthogonalLoop=1;jettySize=auto;html=1;elbow=vertical;endArrow=none;strokeColor=#23445D;fontColor=#000000;endFill=0;strokeWidth=4;" parent="1" source="MXugya-MfVNxB4QQbrh8-9" target="MXugya-MfVNxB4QQbrh8-14" edge="1">
                    <mxGeometry relative="1" as="geometry"/>
                </mxCell>
                <mxCell id="MXugya-MfVNxB4QQbrh8-17" value="" style="edgeStyle=elbowEdgeStyle;rounded=0;orthogonalLoop=1;jettySize=auto;html=1;elbow=vertical;endArrow=none;strokeColor=#23445D;fontColor=#000000;endFill=0;strokeWidth=4;" parent="1" source="MXugya-MfVNxB4QQbrh8-9" target="MXugya-MfVNxB4QQbrh8-16" edge="1">
                    <mxGeometry relative="1" as="geometry"/>
                </mxCell>
                <mxCell id="MXugya-MfVNxB4QQbrh8-9" value="&lt;p&gt;PROJETO LUMOS&lt;/p&gt;" style="whiteSpace=wrap;html=1;fillColor=#10739E;strokeColor=none;fontSize=24;fontColor=#FFFFFF;rounded=1;shadow=1;fontStyle=1;" parent="1" vertex="1">
                    <mxGeometry x="293" y="10" width="241" height="60" as="geometry"/>
                </mxCell>
                <mxCell id="MXugya-MfVNxB4QQbrh8-25" style="edgeStyle=orthogonalEdgeStyle;rounded=0;orthogonalLoop=1;jettySize=auto;html=1;exitX=0;exitY=1;exitDx=0;exitDy=0;entryX=0;entryY=0.5;entryDx=0;entryDy=0;endArrow=none;strokeColor=#23445D;fontColor=#000000;endFill=0;strokeWidth=4;" parent="1" source="MXugya-MfVNxB4QQbrh8-12" target="MXugya-MfVNxB4QQbrh8-23" edge="1">
                    <mxGeometry relative="1" as="geometry">
                        <Array as="points">
                            <mxPoint x="40" y="230"/>
                        </Array>
                    </mxGeometry>
                </mxCell>
                <mxCell id="MXugya-MfVNxB4QQbrh8-26" style="edgeStyle=orthogonalEdgeStyle;rounded=0;orthogonalLoop=1;jettySize=auto;html=1;exitX=0;exitY=1;exitDx=0;exitDy=0;entryX=0;entryY=0.5;entryDx=0;entryDy=0;endArrow=none;strokeColor=#23445D;fontColor=#000000;endFill=0;strokeWidth=4;" parent="1" source="MXugya-MfVNxB4QQbrh8-12" target="MXugya-MfVNxB4QQbrh8-22" edge="1">
                    <mxGeometry relative="1" as="geometry"/>
                </mxCell>
                <mxCell id="MXugya-MfVNxB4QQbrh8-27" style="edgeStyle=orthogonalEdgeStyle;rounded=0;orthogonalLoop=1;jettySize=auto;html=1;exitX=0;exitY=1;exitDx=0;exitDy=0;entryX=0;entryY=0.5;entryDx=0;entryDy=0;endArrow=none;strokeColor=#23445D;fontColor=#000000;endFill=0;strokeWidth=4;" parent="1" source="MXugya-MfVNxB4QQbrh8-12" target="MXugya-MfVNxB4QQbrh8-24" edge="1">
                    <mxGeometry relative="1" as="geometry"/>
                </mxCell>
                <mxCell id="MXugya-MfVNxB4QQbrh8-35" style="edgeStyle=orthogonalEdgeStyle;rounded=0;orthogonalLoop=1;jettySize=auto;html=1;exitX=0;exitY=1;exitDx=0;exitDy=0;entryX=0;entryY=0.5;entryDx=0;entryDy=0;endArrow=none;strokeColor=#23445D;fontColor=#000000;endFill=0;strokeWidth=4;" parent="1" source="MXugya-MfVNxB4QQbrh8-12" target="MXugya-MfVNxB4QQbrh8-28" edge="1">
                    <mxGeometry relative="1" as="geometry"/>
                </mxCell>
                <mxCell id="MXugya-MfVNxB4QQbrh8-12" value="PLANEJAMENTO E DOCUMENTAÇÃO" style="whiteSpace=wrap;html=1;fontSize=14;fillColor=#F2931E;strokeColor=none;fontColor=#FFFFFF;rounded=1;shadow=1;fontStyle=1;" parent="1" vertex="1">
                    <mxGeometry x="40" y="120" width="160" height="60" as="geometry"/>
                </mxCell>
                <mxCell id="MXugya-MfVNxB4QQbrh8-42" style="edgeStyle=elbowEdgeStyle;rounded=0;orthogonalLoop=1;jettySize=auto;html=1;exitX=0.5;exitY=1;exitDx=0;exitDy=0;entryX=0.5;entryY=0;entryDx=0;entryDy=0;elbow=vertical;endArrow=none;strokeColor=#23445D;fontColor=#000000;endFill=0;strokeWidth=4;" parent="1" source="MXugya-MfVNxB4QQbrh8-14" target="MXugya-MfVNxB4QQbrh8-37" edge="1">
                    <mxGeometry relative="1" as="geometry"/>
                </mxCell>
                <mxCell id="MXugya-MfVNxB4QQbrh8-43" style="edgeStyle=elbowEdgeStyle;rounded=0;orthogonalLoop=1;jettySize=auto;html=1;exitX=0.5;exitY=1;exitDx=0;exitDy=0;entryX=0.5;entryY=0;entryDx=0;entryDy=0;elbow=vertical;endArrow=none;strokeColor=#23445D;fontColor=#000000;endFill=0;strokeWidth=4;" parent="1" source="MXugya-MfVNxB4QQbrh8-14" target="MXugya-MfVNxB4QQbrh8-38" edge="1">
                    <mxGeometry relative="1" as="geometry"/>
                </mxCell>
                <mxCell id="MXugya-MfVNxB4QQbrh8-44" style="edgeStyle=elbowEdgeStyle;rounded=0;orthogonalLoop=1;jettySize=auto;html=1;exitX=0.5;exitY=1;exitDx=0;exitDy=0;entryX=0.5;entryY=0;entryDx=0;entryDy=0;elbow=vertical;endArrow=none;strokeColor=#23445D;fontColor=#000000;endFill=0;strokeWidth=4;" parent="1" source="MXugya-MfVNxB4QQbrh8-14" target="MXugya-MfVNxB4QQbrh8-39" edge="1">
                    <mxGeometry relative="1" as="geometry"/>
                </mxCell>
                <mxCell id="MXugya-MfVNxB4QQbrh8-45" style="edgeStyle=elbowEdgeStyle;rounded=0;orthogonalLoop=1;jettySize=auto;html=1;exitX=0.5;exitY=1;exitDx=0;exitDy=0;entryX=0.5;entryY=0;entryDx=0;entryDy=0;elbow=vertical;endArrow=none;strokeColor=#23445D;fontColor=#000000;endFill=0;strokeWidth=4;" parent="1" source="MXugya-MfVNxB4QQbrh8-14" target="MXugya-MfVNxB4QQbrh8-41" edge="1">
                    <mxGeometry relative="1" as="geometry"/>
                </mxCell>
                <mxCell id="MXugya-MfVNxB4QQbrh8-14" value="DESENVOLVIMENTO" style="whiteSpace=wrap;html=1;fontSize=14;fillColor=#F2931E;strokeColor=none;fontColor=#FFFFFF;rounded=1;shadow=1;fontStyle=1;" parent="1" vertex="1">
                    <mxGeometry x="333.5" y="120" width="160" height="60" as="geometry"/>
                </mxCell>
                <mxCell id="MXugya-MfVNxB4QQbrh8-47" style="edgeStyle=elbowEdgeStyle;rounded=0;orthogonalLoop=1;jettySize=auto;html=1;exitX=0;exitY=1;exitDx=0;exitDy=0;entryX=0;entryY=0.5;entryDx=0;entryDy=0;endArrow=none;strokeColor=#23445D;fontColor=#000000;endFill=0;strokeWidth=4;" parent="1" source="MXugya-MfVNxB4QQbrh8-16" target="MXugya-MfVNxB4QQbrh8-46" edge="1">
                    <mxGeometry relative="1" as="geometry">
                        <Array as="points">
                            <mxPoint x="640" y="200"/>
                        </Array>
                    </mxGeometry>
                </mxCell>
                <mxCell id="MXugya-MfVNxB4QQbrh8-51" style="edgeStyle=orthogonalEdgeStyle;rounded=0;orthogonalLoop=1;jettySize=auto;html=1;exitX=0;exitY=1;exitDx=0;exitDy=0;entryX=0;entryY=0.5;entryDx=0;entryDy=0;endArrow=none;strokeColor=#23445D;fontColor=#000000;endFill=0;strokeWidth=4;" parent="1" source="MXugya-MfVNxB4QQbrh8-16" target="MXugya-MfVNxB4QQbrh8-49" edge="1">
                    <mxGeometry relative="1" as="geometry">
                        <Array as="points">
                            <mxPoint x="640" y="310"/>
                        </Array>
                    </mxGeometry>
                </mxCell>
                <mxCell id="MXugya-MfVNxB4QQbrh8-52" style="edgeStyle=orthogonalEdgeStyle;rounded=0;orthogonalLoop=1;jettySize=auto;html=1;exitX=0;exitY=1;exitDx=0;exitDy=0;entryX=0;entryY=0.5;entryDx=0;entryDy=0;endArrow=none;strokeColor=#23445D;fontColor=#000000;endFill=0;strokeWidth=4;" parent="1" source="MXugya-MfVNxB4QQbrh8-16" target="MXugya-MfVNxB4QQbrh8-50" edge="1">
                    <mxGeometry relative="1" as="geometry">
                        <Array as="points">
                            <mxPoint x="640" y="390"/>
                        </Array>
                    </mxGeometry>
                </mxCell>
                <mxCell id="MXugya-MfVNxB4QQbrh8-16" value="CONCLUSÃO E CONSIDERAÇÕES FINAIS" style="whiteSpace=wrap;html=1;fontSize=14;fillColor=#F2931E;strokeColor=none;fontColor=#FFFFFF;rounded=1;shadow=1;fontStyle=1;" parent="1" vertex="1">
                    <mxGeometry x="640" y="120" width="160" height="60" as="geometry"/>
                </mxCell>
                <mxCell id="MXugya-MfVNxB4QQbrh8-22" value="PROTOTIPAÇÃO" style="rounded=1;whiteSpace=wrap;html=1;fillColor=#12AAB5;strokeColor=none;fontColor=#FFFFFF;shadow=1;" parent="1" vertex="1">
                    <mxGeometry x="60" y="440" width="120" height="60" as="geometry"/>
                </mxCell>
                <mxCell id="MXugya-MfVNxB4QQbrh8-23" value="DEFINIÇÃO DO ESCOPO" style="rounded=1;whiteSpace=wrap;html=1;fillColor=#12AAB5;strokeColor=none;fontColor=#FFFFFF;shadow=1;" parent="1" vertex="1">
                    <mxGeometry x="60" y="200" width="120" height="60" as="geometry"/>
                </mxCell>
                <mxCell id="MXugya-MfVNxB4QQbrh8-214" style="edgeStyle=orthogonalEdgeStyle;rounded=0;orthogonalLoop=1;jettySize=auto;html=1;exitX=0;exitY=1;exitDx=0;exitDy=0;entryX=0;entryY=0.5;entryDx=0;entryDy=0;elbow=vertical;endArrow=none;strokeColor=#23445D;fontColor=#000000;endFill=0;strokeWidth=4;" parent="1" source="MXugya-MfVNxB4QQbrh8-24" target="MXugya-MfVNxB4QQbrh8-65" edge="1">
                    <mxGeometry relative="1" as="geometry"/>
                </mxCell>
                <mxCell id="MXugya-MfVNxB4QQbrh8-217" style="edgeStyle=orthogonalEdgeStyle;rounded=0;orthogonalLoop=1;jettySize=auto;html=1;exitX=0;exitY=1;exitDx=0;exitDy=0;entryX=0;entryY=0.5;entryDx=0;entryDy=0;endArrow=none;strokeColor=#23445D;fontColor=#000000;endFill=0;strokeWidth=4;" parent="1" source="MXugya-MfVNxB4QQbrh8-24" target="MXugya-MfVNxB4QQbrh8-215" edge="1">
                    <mxGeometry relative="1" as="geometry"/>
                </mxCell>
                <mxCell id="MXugya-MfVNxB4QQbrh8-218" style="edgeStyle=orthogonalEdgeStyle;rounded=0;orthogonalLoop=1;jettySize=auto;html=1;exitX=0;exitY=1;exitDx=0;exitDy=0;entryX=0;entryY=0.5;entryDx=0;entryDy=0;endArrow=none;strokeColor=#23445D;fontColor=#000000;endFill=0;strokeWidth=4;" parent="1" source="MXugya-MfVNxB4QQbrh8-24" target="MXugya-MfVNxB4QQbrh8-216" edge="1">
                    <mxGeometry relative="1" as="geometry"/>
                </mxCell>
                <mxCell id="MXugya-MfVNxB4QQbrh8-24" value="DIAGRAMAÇÃO" style="rounded=1;whiteSpace=wrap;html=1;fillColor=#12AAB5;strokeColor=none;fontColor=#FFFFFF;shadow=1;" parent="1" vertex="1">
                    <mxGeometry x="60" y="520" width="120" height="60" as="geometry"/>
                </mxCell>
                <mxCell id="MXugya-MfVNxB4QQbrh8-28" value="ELABORAÇÃO DO CRONOGRANA" style="rounded=1;whiteSpace=wrap;html=1;fillColor=#12AAB5;strokeColor=none;fontColor=#FFFFFF;shadow=1;" parent="1" vertex="1">
                    <mxGeometry x="60" y="280" width="120" height="60" as="geometry"/>
                </mxCell>
                <mxCell id="MXugya-MfVNxB4QQbrh8-36" value="LEVANTAMENTO DE REQUISITOS" style="rounded=1;whiteSpace=wrap;html=1;fillColor=#12AAB5;strokeColor=none;fontColor=#FFFFFF;shadow=1;" parent="1" vertex="1">
                    <mxGeometry x="60" y="360" width="120" height="60" as="geometry"/>
                </mxCell>
                <mxCell id="vx1D5H0EMjD1dl-wftPN-11" style="edgeStyle=elbowEdgeStyle;html=1;exitX=0;exitY=0.5;exitDx=0;exitDy=0;entryX=0;entryY=0.5;entryDx=0;entryDy=0;elbow=vertical;endArrow=none;rounded=0;strokeColor=#23445D;fontColor=#000000;endFill=0;strokeWidth=4;" parent="1" source="MXugya-MfVNxB4QQbrh8-37" target="vx1D5H0EMjD1dl-wftPN-7" edge="1">
                    <mxGeometry relative="1" as="geometry">
                        <Array as="points">
                            <mxPoint x="200" y="270"/>
                        </Array>
                    </mxGeometry>
                </mxCell>
                <mxCell id="vx1D5H0EMjD1dl-wftPN-14" style="edgeStyle=elbowEdgeStyle;elbow=vertical;html=1;exitX=0;exitY=0.5;exitDx=0;exitDy=0;entryX=0;entryY=0.5;entryDx=0;entryDy=0;endArrow=none;rounded=0;strokeColor=#23445D;fontColor=#000000;endFill=0;strokeWidth=4;" parent="1" source="MXugya-MfVNxB4QQbrh8-37" target="vx1D5H0EMjD1dl-wftPN-13" edge="1">
                    <mxGeometry relative="1" as="geometry">
                        <Array as="points">
                            <mxPoint x="200" y="270"/>
                        </Array>
                    </mxGeometry>
                </mxCell>
                <mxCell id="vx1D5H0EMjD1dl-wftPN-16" style="edgeStyle=elbowEdgeStyle;elbow=vertical;html=1;exitX=0;exitY=0.5;exitDx=0;exitDy=0;entryX=0;entryY=0.5;entryDx=0;entryDy=0;endArrow=none;rounded=0;strokeColor=#23445D;fontColor=#000000;endFill=0;strokeWidth=4;" parent="1" source="MXugya-MfVNxB4QQbrh8-37" target="vx1D5H0EMjD1dl-wftPN-15" edge="1">
                    <mxGeometry relative="1" as="geometry">
                        <Array as="points">
                            <mxPoint x="200" y="260"/>
                            <mxPoint x="210" y="260"/>
                            <mxPoint x="200" y="270"/>
                        </Array>
                    </mxGeometry>
                </mxCell>
                <mxCell id="MXugya-MfVNxB4QQbrh8-37" value="SPRINT 1" style="rounded=1;whiteSpace=wrap;html=1;fillColor=#12AAB5;strokeColor=none;fontColor=#FFFFFF;shadow=1;" parent="1" vertex="1">
                    <mxGeometry x="213" y="220" width="80" height="40" as="geometry"/>
                </mxCell>
                <mxCell id="vx1D5H0EMjD1dl-wftPN-12" style="edgeStyle=elbowEdgeStyle;elbow=vertical;html=1;exitX=0;exitY=0.5;exitDx=0;exitDy=0;entryX=0;entryY=0.5;entryDx=0;entryDy=0;endArrow=none;rounded=0;strokeColor=#23445D;fontColor=#000000;endFill=0;strokeWidth=4;" parent="1" source="MXugya-MfVNxB4QQbrh8-38" target="vx1D5H0EMjD1dl-wftPN-8" edge="1">
                    <mxGeometry relative="1" as="geometry">
                        <Array as="points">
                            <mxPoint x="310" y="260"/>
                            <mxPoint x="300" y="260"/>
                            <mxPoint x="310" y="260"/>
                        </Array>
                    </mxGeometry>
                </mxCell>
                <mxCell id="vx1D5H0EMjD1dl-wftPN-25" style="edgeStyle=elbowEdgeStyle;elbow=vertical;html=1;exitX=0;exitY=0.5;exitDx=0;exitDy=0;entryX=0;entryY=0.5;entryDx=0;entryDy=0;endArrow=none;rounded=0;strokeColor=#23445D;fontColor=#000000;endFill=0;strokeWidth=4;" parent="1" source="MXugya-MfVNxB4QQbrh8-38" target="vx1D5H0EMjD1dl-wftPN-18" edge="1">
                    <mxGeometry relative="1" as="geometry">
                        <Array as="points">
                            <mxPoint x="310" y="270"/>
                        </Array>
                    </mxGeometry>
                </mxCell>
                <mxCell id="vx1D5H0EMjD1dl-wftPN-26" style="edgeStyle=elbowEdgeStyle;elbow=vertical;html=1;exitX=0;exitY=0.5;exitDx=0;exitDy=0;entryX=0;entryY=0.5;entryDx=0;entryDy=0;endArrow=none;rounded=0;strokeColor=#23445D;fontColor=#000000;endFill=0;strokeWidth=4;" parent="1" source="MXugya-MfVNxB4QQbrh8-38" target="vx1D5H0EMjD1dl-wftPN-19" edge="1">
                    <mxGeometry relative="1" as="geometry">
                        <Array as="points">
                            <mxPoint x="310" y="280"/>
                        </Array>
                    </mxGeometry>
                </mxCell>
                <mxCell id="vx1D5H0EMjD1dl-wftPN-27" style="edgeStyle=elbowEdgeStyle;elbow=vertical;html=1;exitX=0;exitY=0.5;exitDx=0;exitDy=0;entryX=0;entryY=0.5;entryDx=0;entryDy=0;endArrow=none;rounded=0;strokeColor=#23445D;fontColor=#000000;endFill=0;strokeWidth=4;" parent="1" source="MXugya-MfVNxB4QQbrh8-38" target="vx1D5H0EMjD1dl-wftPN-20" edge="1">
                    <mxGeometry relative="1" as="geometry">
                        <Array as="points">
                            <mxPoint x="310" y="270"/>
                        </Array>
                    </mxGeometry>
                </mxCell>
                <mxCell id="vx1D5H0EMjD1dl-wftPN-28" style="edgeStyle=elbowEdgeStyle;elbow=vertical;html=1;exitX=0;exitY=0.5;exitDx=0;exitDy=0;entryX=0;entryY=0.5;entryDx=0;entryDy=0;endArrow=none;rounded=0;strokeColor=#23445D;fontColor=#000000;endFill=0;strokeWidth=4;" parent="1" source="MXugya-MfVNxB4QQbrh8-38" target="vx1D5H0EMjD1dl-wftPN-21" edge="1">
                    <mxGeometry relative="1" as="geometry">
                        <Array as="points">
                            <mxPoint x="310" y="270"/>
                        </Array>
                    </mxGeometry>
                </mxCell>
                <mxCell id="MXugya-MfVNxB4QQbrh8-38" value="SPRINT 2" style="rounded=1;whiteSpace=wrap;html=1;fillColor=#12AAB5;strokeColor=none;fontColor=#FFFFFF;shadow=1;" parent="1" vertex="1">
                    <mxGeometry x="320" y="220" width="80" height="40" as="geometry"/>
                </mxCell>
                <mxCell id="vx1D5H0EMjD1dl-wftPN-29" style="edgeStyle=elbowEdgeStyle;elbow=vertical;html=1;exitX=0;exitY=0.5;exitDx=0;exitDy=0;entryX=0;entryY=0.5;entryDx=0;entryDy=0;endArrow=none;rounded=0;strokeColor=#23445D;fontColor=#000000;endFill=0;strokeWidth=4;" parent="1" source="MXugya-MfVNxB4QQbrh8-39" target="vx1D5H0EMjD1dl-wftPN-9" edge="1">
                    <mxGeometry relative="1" as="geometry">
                        <Array as="points">
                            <mxPoint x="420" y="300"/>
                            <mxPoint x="410" y="270"/>
                        </Array>
                    </mxGeometry>
                </mxCell>
                <mxCell id="vx1D5H0EMjD1dl-wftPN-30" style="edgeStyle=elbowEdgeStyle;elbow=vertical;html=1;exitX=0;exitY=0.5;exitDx=0;exitDy=0;entryX=0;entryY=0.5;entryDx=0;entryDy=0;endArrow=none;rounded=0;strokeColor=#23445D;fontColor=#000000;endFill=0;strokeWidth=4;" parent="1" source="MXugya-MfVNxB4QQbrh8-39" target="vx1D5H0EMjD1dl-wftPN-22" edge="1">
                    <mxGeometry relative="1" as="geometry">
                        <Array as="points">
                            <mxPoint x="420" y="360"/>
                            <mxPoint x="410" y="290"/>
                        </Array>
                    </mxGeometry>
                </mxCell>
                <mxCell id="vx1D5H0EMjD1dl-wftPN-31" style="edgeStyle=elbowEdgeStyle;elbow=vertical;html=1;exitX=0;exitY=0.5;exitDx=0;exitDy=0;entryX=0;entryY=0.5;entryDx=0;entryDy=0;endArrow=none;rounded=0;strokeColor=#23445D;fontColor=#000000;endFill=0;strokeWidth=4;" parent="1" source="MXugya-MfVNxB4QQbrh8-39" target="vx1D5H0EMjD1dl-wftPN-23" edge="1">
                    <mxGeometry relative="1" as="geometry">
                        <Array as="points">
                            <mxPoint x="420" y="420"/>
                            <mxPoint x="410" y="280"/>
                        </Array>
                    </mxGeometry>
                </mxCell>
                <mxCell id="MXugya-MfVNxB4QQbrh8-39" value="SPRINT 3" style="rounded=1;whiteSpace=wrap;html=1;fillColor=#12AAB5;strokeColor=none;fontColor=#FFFFFF;shadow=1;" parent="1" vertex="1">
                    <mxGeometry x="427" y="220" width="80" height="40" as="geometry"/>
                </mxCell>
                <mxCell id="vx1D5H0EMjD1dl-wftPN-32" style="edgeStyle=elbowEdgeStyle;elbow=vertical;html=1;exitX=0;exitY=0.5;exitDx=0;exitDy=0;entryX=0;entryY=0.5;entryDx=0;entryDy=0;endArrow=none;rounded=0;strokeColor=#23445D;fontColor=#000000;endFill=0;strokeWidth=4;" parent="1" source="MXugya-MfVNxB4QQbrh8-41" target="vx1D5H0EMjD1dl-wftPN-10" edge="1">
                    <mxGeometry relative="1" as="geometry">
                        <Array as="points">
                            <mxPoint x="520" y="260"/>
                        </Array>
                    </mxGeometry>
                </mxCell>
                <mxCell id="vx1D5H0EMjD1dl-wftPN-33" style="edgeStyle=elbowEdgeStyle;elbow=vertical;html=1;exitX=0;exitY=0.5;exitDx=0;exitDy=0;entryX=0;entryY=0.5;entryDx=0;entryDy=0;endArrow=none;rounded=0;strokeColor=#23445D;fontColor=#000000;endFill=0;strokeWidth=4;" parent="1" source="MXugya-MfVNxB4QQbrh8-41" target="vx1D5H0EMjD1dl-wftPN-24" edge="1">
                    <mxGeometry relative="1" as="geometry">
                        <Array as="points">
                            <mxPoint x="520" y="270"/>
                        </Array>
                    </mxGeometry>
                </mxCell>
                <mxCell id="MXugya-MfVNxB4QQbrh8-41" value="SPRINT 4" style="rounded=1;whiteSpace=wrap;html=1;fillColor=#12AAB5;strokeColor=none;fontColor=#FFFFFF;shadow=1;" parent="1" vertex="1">
                    <mxGeometry x="534" y="220" width="80" height="40" as="geometry"/>
                </mxCell>
                <mxCell id="MXugya-MfVNxB4QQbrh8-46" value="IMPLEMENTAÇÃO" style="rounded=1;whiteSpace=wrap;html=1;fillColor=#12AAB5;strokeColor=none;fontColor=#FFFFFF;shadow=1;" parent="1" vertex="1">
                    <mxGeometry x="657" y="200" width="120" height="60" as="geometry"/>
                </mxCell>
                <mxCell id="MXugya-MfVNxB4QQbrh8-49" value="TESTE E VALIDAÇÃO" style="rounded=1;whiteSpace=wrap;html=1;fillColor=#12AAB5;strokeColor=none;fontColor=#FFFFFF;shadow=1;" parent="1" vertex="1">
                    <mxGeometry x="657" y="280" width="120" height="60" as="geometry"/>
                </mxCell>
                <mxCell id="MXugya-MfVNxB4QQbrh8-50" value="CORREÇÃO DE&amp;nbsp; BUGS E AJUSTES&amp;nbsp; FINAIS" style="rounded=1;whiteSpace=wrap;html=1;fillColor=#12AAB5;strokeColor=none;fontColor=#FFFFFF;shadow=1;" parent="1" vertex="1">
                    <mxGeometry x="657" y="360" width="120" height="60" as="geometry"/>
                </mxCell>
                <mxCell id="MXugya-MfVNxB4QQbrh8-65" value="MODELAGEM DO BANCO DE DADOS" style="whiteSpace=wrap;rounded=1;fillColor=#999999;strokeColor=none;shadow=1;fontColor=#FFFFFF;fontStyle=0" parent="1" vertex="1">
                    <mxGeometry x="80" y="600" width="120" height="40" as="geometry"/>
                </mxCell>
                <mxCell id="MXugya-MfVNxB4QQbrh8-215" value="DIAGRAMA DE CLASSE" style="whiteSpace=wrap;rounded=1;fillColor=#999999;strokeColor=none;shadow=1;fontColor=#FFFFFF;fontStyle=0" parent="1" vertex="1">
                    <mxGeometry x="80" y="650" width="120" height="40" as="geometry"/>
                </mxCell>
                <mxCell id="MXugya-MfVNxB4QQbrh8-216" value="DIAGRAMA DE CASOS DE USO" style="whiteSpace=wrap;rounded=1;fillColor=#999999;strokeColor=none;shadow=1;fontColor=#FFFFFF;fontStyle=0" parent="1" vertex="1">
                    <mxGeometry x="80" y="700" width="120" height="40" as="geometry"/>
                </mxCell>
                <mxCell id="vx1D5H0EMjD1dl-wftPN-7" value="Tela de login" style="rounded=1;whiteSpace=wrap;html=1;fillColor=#999999;strokeColor=none;fontColor=#FFFFFF;shadow=1;fontStyle=0;" parent="1" vertex="1">
                    <mxGeometry x="213" y="280" width="80" height="60" as="geometry"/>
                </mxCell>
                <mxCell id="vx1D5H0EMjD1dl-wftPN-8" value="Tela inicial" style="rounded=1;whiteSpace=wrap;html=1;fillColor=#999999;strokeColor=none;fontColor=#FFFFFF;shadow=1;fontStyle=0;" parent="1" vertex="1">
                    <mxGeometry x="320" y="280" width="80" height="60" as="geometry"/>
                </mxCell>
                <mxCell id="vx1D5H0EMjD1dl-wftPN-9" value="Função enviar mensagem" style="rounded=1;whiteSpace=wrap;html=1;fillColor=#999999;strokeColor=none;fontColor=#FFFFFF;shadow=1;fontStyle=0;" parent="1" vertex="1">
                    <mxGeometry x="430" y="280" width="80" height="60" as="geometry"/>
                </mxCell>
                <mxCell id="vx1D5H0EMjD1dl-wftPN-10" value="Tela perfil de usuário" style="rounded=1;whiteSpace=wrap;html=1;fillColor=#999999;strokeColor=none;fontColor=#FFFFFF;shadow=1;fontStyle=0;" parent="1" vertex="1">
                    <mxGeometry x="534" y="280" width="80" height="60" as="geometry"/>
                </mxCell>
                <mxCell id="vx1D5H0EMjD1dl-wftPN-13" value="Tela de cadastro" style="rounded=1;whiteSpace=wrap;html=1;fillColor=#999999;strokeColor=none;fontColor=#FFFFFF;shadow=1;fontStyle=0;" parent="1" vertex="1">
                    <mxGeometry x="213" y="350" width="80" height="60" as="geometry"/>
                </mxCell>
                <mxCell id="vx1D5H0EMjD1dl-wftPN-15" value="Middleware de autenticação" style="rounded=1;whiteSpace=wrap;html=1;fillColor=#999999;strokeColor=none;fontColor=#FFFFFF;shadow=1;fontStyle=0;" parent="1" vertex="1">
                    <mxGeometry x="213" y="420" width="80" height="60" as="geometry"/>
                </mxCell>
                <mxCell id="vx1D5H0EMjD1dl-wftPN-18" value="Função buscar usuários" style="rounded=1;whiteSpace=wrap;html=1;fillColor=#999999;strokeColor=none;fontColor=#FFFFFF;shadow=1;fontStyle=0;" parent="1" vertex="1">
                    <mxGeometry x="319" y="350" width="80" height="60" as="geometry"/>
                </mxCell>
                <mxCell id="vx1D5H0EMjD1dl-wftPN-19" value="Função adicionar contato" style="rounded=1;whiteSpace=wrap;html=1;fillColor=#999999;strokeColor=none;fontColor=#FFFFFF;shadow=1;fontStyle=0;" parent="1" vertex="1">
                    <mxGeometry x="320" y="420" width="80" height="60" as="geometry"/>
                </mxCell>
                <mxCell id="vx1D5H0EMjD1dl-wftPN-20" value="Função remover contato" style="rounded=1;whiteSpace=wrap;html=1;fillColor=#999999;strokeColor=none;fontColor=#FFFFFF;shadow=1;fontStyle=0;" parent="1" vertex="1">
                    <mxGeometry x="319" y="490" width="80" height="60" as="geometry"/>
                </mxCell>
                <mxCell id="vx1D5H0EMjD1dl-wftPN-21" value="Tela de conversa" style="rounded=1;whiteSpace=wrap;html=1;fillColor=#999999;strokeColor=none;fontColor=#FFFFFF;shadow=1;fontStyle=0;" parent="1" vertex="1">
                    <mxGeometry x="320" y="560" width="80" height="60" as="geometry"/>
                </mxCell>
                <mxCell id="vx1D5H0EMjD1dl-wftPN-22" value="Função editar mensagem" style="rounded=1;whiteSpace=wrap;html=1;fillColor=#999999;strokeColor=none;fontColor=#FFFFFF;shadow=1;fontStyle=0;" parent="1" vertex="1">
                    <mxGeometry x="429" y="350" width="80" height="60" as="geometry"/>
                </mxCell>
                <mxCell id="vx1D5H0EMjD1dl-wftPN-23" value="Função remover mensagem" style="rounded=1;whiteSpace=wrap;html=1;fillColor=#999999;strokeColor=none;fontColor=#FFFFFF;shadow=1;fontStyle=0;" parent="1" vertex="1">
                    <mxGeometry x="430" y="420" width="80" height="60" as="geometry"/>
                </mxCell>
                <mxCell id="vx1D5H0EMjD1dl-wftPN-24" value="Função editar perfil" style="rounded=1;whiteSpace=wrap;html=1;fillColor=#999999;strokeColor=none;fontColor=#FFFFFF;shadow=1;fontStyle=0;" parent="1" vertex="1">
                    <mxGeometry x="534" y="350" width="80" height="60" as="geometry"/>
                </mxCell>
            </root>
        </mxGraphModel>
    </diagram>
    <diagram id="reoS_LVwrN0uRM648P9K" name="PMCanvas (A2)">
        <mxGraphModel dx="2304" dy="1344" grid="1" gridSize="10" guides="1" tooltips="1" connect="0" arrows="0" fold="1" page="1" pageScale="1" pageWidth="2336" pageHeight="1654" math="0" shadow="0">
            <root>
                <mxCell id="0"/>
                <mxCell id="1" parent="0"/>
                <mxCell id="BZZP7fALlYrfuZO5LuJI-1" value="" style="rounded=0;whiteSpace=wrap;html=1;shadow=0;labelBackgroundColor=none;strokeColor=none;strokeWidth=3;fontSize=60;align=left;fillColor=#000000;" parent="1" vertex="1">
                    <mxGeometry x="20" y="20" width="2250" height="1598" as="geometry"/>
                </mxCell>
                <mxCell id="BZZP7fALlYrfuZO5LuJI-2" value="&lt;div style=&quot;font-size: 26px&quot;&gt;&lt;font style=&quot;font-size: 26px&quot;&gt;Customer Relationships&lt;/font&gt;&lt;/div&gt;&lt;div style=&quot;font-size: 26px&quot;&gt;&lt;font style=&quot;font-size: 26px&quot;&gt;(Relação com os clientes)&lt;/font&gt;&lt;/div&gt;&lt;div&gt;&lt;br&gt;&lt;/div&gt;&lt;div style=&quot;font-size: 16px;&quot;&gt;&lt;ul style=&quot;line-height: 200%;&quot;&gt;&lt;li style=&quot;text-align: justify;&quot;&gt;Suporte ao usuário;&lt;/li&gt;&lt;li style=&quot;text-align: justify;&quot;&gt;Comunicação regular e notas de atualização;&lt;/li&gt;&lt;li style=&quot;text-align: justify;&quot;&gt;Coleta de feedbacks e sugestões&amp;nbsp; de mehoria;&lt;/li&gt;&lt;/ul&gt;&lt;/div&gt;" style="rounded=0;whiteSpace=wrap;html=1;shadow=0;labelBackgroundColor=none;strokeWidth=5;fontSize=12;align=left;verticalAlign=top;spacing=30;fillColor=#fff2cc;strokeColor=#000000;" parent="1" vertex="1">
                    <mxGeometry x="1360" y="208" width="420" height="450" as="geometry"/>
                </mxCell>
                <mxCell id="BZZP7fALlYrfuZO5LuJI-3" value="&lt;font&gt;&lt;font style=&quot;font-size: 26px&quot;&gt;Key Partners&lt;/font&gt;&lt;/font&gt;&lt;div&gt;&lt;font&gt;&lt;span style=&quot;font-size: 26px;&quot;&gt;(Parceiros-chave)&lt;/span&gt;&lt;/font&gt;&lt;/div&gt;" style="rounded=0;whiteSpace=wrap;html=1;shadow=0;labelBackgroundColor=none;strokeWidth=5;fontSize=12;align=left;verticalAlign=top;spacing=30;fillColor=#d5e8d4;strokeColor=#000000;" parent="1" vertex="1">
                    <mxGeometry x="100" y="208" width="420" height="900" as="geometry"/>
                </mxCell>
                <mxCell id="BZZP7fALlYrfuZO5LuJI-4" value="&lt;font&gt;&lt;font style=&quot;font-size: 26px&quot;&gt;Key Activities&lt;/font&gt;&lt;/font&gt;&lt;div&gt;&lt;font&gt;&lt;span style=&quot;font-size: 16px;&quot;&gt;(Atividades-chave)&lt;br&gt;&lt;br&gt;&lt;ul style=&quot;line-height: 200%;&quot;&gt;&lt;li style=&quot;text-align: justify;&quot;&gt;Suporte&lt;/li&gt;&lt;li style=&quot;text-align: justify;&quot;&gt;Manutenbção&lt;/li&gt;&lt;li style=&quot;text-align: justify;&quot;&gt;Desenvolvimento&lt;/li&gt;&lt;li style=&quot;text-align: justify;&quot;&gt;Segurança&lt;/li&gt;&lt;li style=&quot;text-align: justify;&quot;&gt;Infra-estrutura&lt;/li&gt;&lt;/ul&gt;&lt;/span&gt;&lt;/font&gt;&lt;/div&gt;" style="rounded=0;whiteSpace=wrap;html=1;shadow=0;labelBackgroundColor=none;strokeWidth=5;fontSize=12;align=left;verticalAlign=top;spacing=30;fillColor=#d5e8d4;strokeColor=#000000;" parent="1" vertex="1">
                    <mxGeometry x="520" y="208" width="420" height="450" as="geometry"/>
                </mxCell>
                <mxCell id="BZZP7fALlYrfuZO5LuJI-5" value="&lt;div&gt;&lt;font style=&quot;font-size: 26px&quot;&gt;Key Resources&lt;/font&gt;&lt;/div&gt;&lt;div&gt;&lt;font style=&quot;font-size: 26px&quot;&gt;(Recursos chave)&lt;/font&gt;&lt;/div&gt;&lt;div&gt;&lt;br&gt;&lt;/div&gt;&lt;div style=&quot;text-align: justify; font-size: 16px;&quot;&gt;&lt;ul style=&quot;line-height: 200%;&quot;&gt;&lt;li&gt;&lt;font style=&quot;font-size: 16px;&quot;&gt;Clientes, ou seja, usuários grátis e premium;&lt;/font&gt;&lt;/li&gt;&lt;li&gt;&lt;font style=&quot;font-size: 16px;&quot;&gt;Empresas parceiras;&lt;/font&gt;&lt;/li&gt;&lt;li style=&quot;border-color: var(--border-color);&quot;&gt;&lt;font style=&quot;border-color: var(--border-color);&quot;&gt;Patrocinio externo e parcerias;&lt;/font&gt;&lt;/li&gt;&lt;li&gt;&lt;font style=&quot;font-size: 16px;&quot;&gt;Colaboradores para a manutenção, desenvolvimento e apprimoramento do negócio;&lt;/font&gt;&lt;/li&gt;&lt;li&gt;&lt;span style=&quot;background-color: initial;&quot;&gt;Servidores;&lt;/span&gt;&lt;br&gt;&lt;/li&gt;&lt;/ul&gt;&lt;/div&gt;" style="rounded=0;whiteSpace=wrap;html=1;shadow=0;labelBackgroundColor=none;strokeWidth=5;fontSize=12;align=left;verticalAlign=top;spacing=30;fillColor=#d5e8d4;strokeColor=#000000;" parent="1" vertex="1">
                    <mxGeometry x="520" y="658" width="420" height="450" as="geometry"/>
                </mxCell>
                <mxCell id="BZZP7fALlYrfuZO5LuJI-6" value="&lt;div style=&quot;font-size: 26px&quot;&gt;&lt;font style=&quot;font-size: 26px&quot;&gt;Value Propositions&lt;/font&gt;&lt;/div&gt;&lt;div style=&quot;font-size: 26px&quot;&gt;&lt;font style=&quot;font-size: 26px&quot;&gt;(Propostas de valor)&lt;/font&gt;&lt;/div&gt;&lt;div&gt;&lt;br&gt;&lt;/div&gt;&lt;div&gt;&lt;br&gt;&lt;/div&gt;&lt;div style=&quot;line-height: 200%;&quot;&gt;&lt;ul style=&quot;line-height: 200%;&quot;&gt;&lt;li style=&quot;text-align: justify;&quot;&gt;&lt;font style=&quot;font-size: 16px;&quot;&gt;Desing simples, minimalista e confortavel;&lt;/font&gt;&lt;/li&gt;&lt;li style=&quot;text-align: justify;&quot;&gt;&lt;font style=&quot;font-size: 16px;&quot;&gt;Performace;&lt;/font&gt;&lt;/li&gt;&lt;li style=&quot;text-align: justify;&quot;&gt;&lt;font style=&quot;font-size: 16px;&quot;&gt;Boa experiência;&lt;/font&gt;&lt;/li&gt;&lt;li style=&quot;text-align: justify;&quot;&gt;&lt;font style=&quot;font-size: 16px;&quot;&gt;Recursos avançados;&lt;/font&gt;&lt;/li&gt;&lt;/ul&gt;&lt;/div&gt;&lt;div style=&quot;text-align: justify; font-size: 10px; line-height: 200%;&quot;&gt;&lt;br&gt;&lt;/div&gt;" style="rounded=0;whiteSpace=wrap;html=1;shadow=0;labelBackgroundColor=none;strokeWidth=5;fontSize=12;align=left;verticalAlign=top;spacing=30;fillColor=#f8cecc;strokeColor=#000000;" parent="1" vertex="1">
                    <mxGeometry x="940" y="208" width="420" height="900" as="geometry"/>
                </mxCell>
                <mxCell id="BZZP7fALlYrfuZO5LuJI-7" value="&lt;div&gt;&lt;font style=&quot;font-size: 26px&quot;&gt;Customer Segments&lt;/font&gt;&lt;/div&gt;&lt;div&gt;&lt;font style=&quot;font-size: 26px&quot;&gt;(Segmento de Clientes)&lt;/font&gt;&lt;/div&gt;&lt;div&gt;&lt;br&gt;&lt;/div&gt;&lt;div style=&quot;font-size: 16px;&quot;&gt;&lt;ul style=&quot;line-height: 200%;&quot;&gt;&lt;li style=&quot;text-align: justify;&quot;&gt;&lt;span style=&quot;background-color: initial;&quot;&gt;Jovens;&lt;/span&gt;&lt;br&gt;&lt;/li&gt;&lt;li style=&quot;text-align: justify;&quot;&gt;&lt;span style=&quot;background-color: initial;&quot;&gt;Adultos;&lt;/span&gt;&lt;/li&gt;&lt;li style=&quot;text-align: justify;&quot;&gt;&lt;span style=&quot;background-color: initial;&quot;&gt;Usuários de redes sociais e mensageiros;&lt;/span&gt;&lt;/li&gt;&lt;li style=&quot;text-align: justify;&quot;&gt;&lt;span style=&quot;background-color: initial;&quot;&gt;Empresas que buscam mensageiros internos e privados;&lt;/span&gt;&lt;/li&gt;&lt;/ul&gt;&lt;/div&gt;" style="rounded=0;whiteSpace=wrap;html=1;shadow=0;labelBackgroundColor=none;strokeWidth=5;fontSize=12;align=left;verticalAlign=top;spacing=30;fillColor=#fff2cc;strokeColor=#000000;" parent="1" vertex="1">
                    <mxGeometry x="1780" y="208" width="420" height="900" as="geometry"/>
                </mxCell>
                <mxCell id="BZZP7fALlYrfuZO5LuJI-8" value="&lt;div&gt;&lt;font style=&quot;font-size: 26px&quot;&gt;Channels (Canais)&lt;/font&gt;&lt;/div&gt;&lt;div&gt;&lt;br&gt;&lt;/div&gt;&lt;div style=&quot;font-size: 16px;&quot;&gt;&lt;ul style=&quot;line-height: 200%;&quot;&gt;&lt;li&gt;Plataforma de suporte ao usuário;&lt;/li&gt;&lt;li&gt;Plataforma de duvidas;&lt;/li&gt;&lt;li&gt;Canais externos;&lt;/li&gt;&lt;/ul&gt;&lt;/div&gt;" style="rounded=0;whiteSpace=wrap;html=1;shadow=0;labelBackgroundColor=none;strokeWidth=5;fontSize=12;align=left;verticalAlign=top;spacing=30;fillColor=#fff2cc;strokeColor=#000000;" parent="1" vertex="1">
                    <mxGeometry x="1360" y="658" width="420" height="450" as="geometry"/>
                </mxCell>
                <mxCell id="BZZP7fALlYrfuZO5LuJI-9" value="&lt;div style=&quot;font-size: 26px&quot;&gt;&lt;font style=&quot;font-size: 26px&quot;&gt;Cost Structure (Estrutura de Custos)&lt;/font&gt;&lt;/div&gt;&lt;div&gt;&lt;br&gt;&lt;/div&gt;&lt;div style=&quot;text-align: justify; line-height: 200%;&quot;&gt;&lt;ul&gt;&lt;li&gt;&lt;font style=&quot;font-size: 16px;&quot;&gt;Desenvolvimento de software e manutenção;&lt;/font&gt;&lt;/li&gt;&lt;li&gt;&lt;font style=&quot;font-size: 16px;&quot;&gt;Custos de hospedagem e infraestrutura;&lt;/font&gt;&lt;/li&gt;&lt;li&gt;&lt;font style=&quot;font-size: 16px;&quot;&gt;Despesas de marketing e promoção;&lt;/font&gt;&lt;/li&gt;&lt;/ul&gt;&lt;/div&gt;" style="rounded=0;whiteSpace=wrap;html=1;shadow=0;labelBackgroundColor=none;strokeWidth=5;fontSize=12;align=left;verticalAlign=top;spacing=30;fillColor=#dae8fc;strokeColor=#000000;" parent="1" vertex="1">
                    <mxGeometry x="100" y="1108" width="1050" height="330" as="geometry"/>
                </mxCell>
                <mxCell id="BZZP7fALlYrfuZO5LuJI-10" value="&lt;div style=&quot;font-size: 26px&quot;&gt;&lt;font style=&quot;font-size: 26px&quot;&gt;Revenue Streams (Fluxo de Receitas)&lt;/font&gt;&lt;/div&gt;&lt;div&gt;&lt;br&gt;&lt;/div&gt;&lt;div style=&quot;font-size: 16px;&quot;&gt;&lt;ul style=&quot;line-height: 200%;&quot;&gt;&lt;li&gt;Recursos avançados pagos;&lt;/li&gt;&lt;li&gt;Servidores privados para empresas com recursos exclusivos;&lt;/li&gt;&lt;/ul&gt;&lt;/div&gt;" style="rounded=0;whiteSpace=wrap;html=1;shadow=0;labelBackgroundColor=none;strokeWidth=5;fontSize=12;align=left;verticalAlign=top;spacing=30;fillColor=#dae8fc;strokeColor=#000000;" parent="1" vertex="1">
                    <mxGeometry x="1151" y="1109" width="1050" height="330" as="geometry"/>
                </mxCell>
                <mxCell id="BZZP7fALlYrfuZO5LuJI-11" value="The Business Model Canvas&lt;br&gt;" style="text;html=1;resizable=0;points=[];autosize=1;align=left;verticalAlign=top;spacingTop=-4;fontSize=60;labelBackgroundColor=none;rounded=0;fontColor=#FFFFFF;fontStyle=1" parent="1" vertex="1">
                    <mxGeometry x="100" y="98" width="790" height="80" as="geometry"/>
                </mxCell>
                <mxCell id="BZZP7fALlYrfuZO5LuJI-12" value="" style="html=1;verticalLabelPosition=bottom;labelBackgroundColor=none;verticalAlign=top;shadow=0;dashed=0;strokeWidth=4;shape=mxgraph.ios7.misc.check;fontSize=12;align=left;rounded=0;" parent="1" vertex="1">
                    <mxGeometry x="900" y="240" width="20" height="16" as="geometry"/>
                </mxCell>
                <mxCell id="BZZP7fALlYrfuZO5LuJI-13" value="" style="shape=mxgraph.signs.travel.present;html=1;strokeColor=none;verticalLabelPosition=bottom;verticalAlign=top;align=center;shadow=0;labelBackgroundColor=none;fontSize=12;rounded=0;fillColor=#000000;" parent="1" vertex="1">
                    <mxGeometry x="1310" y="223" width="31" height="40" as="geometry"/>
                </mxCell>
                <mxCell id="BZZP7fALlYrfuZO5LuJI-14" value="" style="html=1;verticalLabelPosition=bottom;labelBackgroundColor=none;verticalAlign=top;strokeWidth=3;strokeColor=none;shadow=0;dashed=0;shape=mxgraph.ios7.icons.heart;fontSize=12;align=left;rounded=0;fillColor=#000000;" parent="1" vertex="1">
                    <mxGeometry x="1715.0000000000005" y="230" width="41" height="36" as="geometry"/>
                </mxCell>
                <mxCell id="BZZP7fALlYrfuZO5LuJI-18" value="" style="shadow=0;dashed=0;html=1;strokeColor=none;labelPosition=center;verticalLabelPosition=bottom;verticalAlign=top;shape=mxgraph.mscae.cloud.data_factory;labelBackgroundColor=none;fontSize=10;align=left;rounded=0;fillColor=#000000;" parent="1" vertex="1">
                    <mxGeometry x="870" y="678" width="50" height="50" as="geometry"/>
                </mxCell>
                <mxCell id="BZZP7fALlYrfuZO5LuJI-19" value="" style="shape=mxgraph.signs.transportation.truck_6;html=1;strokeColor=none;verticalLabelPosition=bottom;verticalAlign=top;align=center;shadow=0;labelBackgroundColor=none;fontSize=10;aspect=fixed;rounded=0;fillColor=#000000;" parent="1" vertex="1">
                    <mxGeometry x="1720" y="678" width="40" height="50" as="geometry"/>
                </mxCell>
                <mxCell id="BZZP7fALlYrfuZO5LuJI-20" value="" style="shape=image;html=1;verticalAlign=top;verticalLabelPosition=bottom;labelBackgroundColor=none;imageAspect=0;aspect=fixed;image=https://cdn4.iconfinder.com/data/icons/evil-icons-user-interface/64/price-128.png;shadow=0;strokeWidth=3;fontSize=10;align=left;rounded=0;imageBackground=none;" parent="1" vertex="1">
                    <mxGeometry x="1084" y="1128" width="58" height="58" as="geometry"/>
                </mxCell>
                <mxCell id="BZZP7fALlYrfuZO5LuJI-21" value="" style="dashed=0;html=1;shape=mxgraph.aws3.checklist_cost;shadow=0;labelBackgroundColor=none;strokeWidth=3;fontSize=10;align=left;rounded=0;fillColor=#000000;" parent="1" vertex="1">
                    <mxGeometry x="2106.5" y="1119.5" width="67.5" height="75" as="geometry"/>
                </mxCell>
                <mxCell id="BZZP7fALlYrfuZO5LuJI-22" value="" style="shadow=0;dashed=0;html=1;strokeColor=none;labelPosition=center;verticalLabelPosition=bottom;verticalAlign=top;outlineConnect=0;shape=mxgraph.office.concepts.link;labelBackgroundColor=none;fontSize=10;align=left;rounded=0;fillColor=#000000;" parent="1" vertex="1">
                    <mxGeometry x="439" y="229" width="61" height="21" as="geometry"/>
                </mxCell>
                <mxCell id="BZZP7fALlYrfuZO5LuJI-23" value="" style="group;labelBackgroundColor=none;rounded=0;strokeColor=none;" parent="1" vertex="1" connectable="0">
                    <mxGeometry x="2106.5" y="233" width="69" height="50" as="geometry"/>
                </mxCell>
                <mxCell id="BZZP7fALlYrfuZO5LuJI-24" value="" style="shadow=0;dashed=0;html=1;labelPosition=center;verticalLabelPosition=bottom;verticalAlign=top;outlineConnect=0;shape=mxgraph.office.users.user;labelBackgroundColor=none;fontSize=10;align=left;strokeWidth=2;rounded=0;fillColor=#000000;" parent="BZZP7fALlYrfuZO5LuJI-23" vertex="1">
                    <mxGeometry x="31" y="-5" width="46" height="50" as="geometry"/>
                </mxCell>
                <mxCell id="BZZP7fALlYrfuZO5LuJI-25" value="" style="shadow=0;dashed=0;html=1;labelPosition=center;verticalLabelPosition=bottom;verticalAlign=top;outlineConnect=0;shape=mxgraph.office.users.user;labelBackgroundColor=none;fontSize=10;align=left;strokeWidth=2;rounded=0;fillColor=#000000;" parent="BZZP7fALlYrfuZO5LuJI-23" vertex="1">
                    <mxGeometry width="46" height="50" as="geometry"/>
                </mxCell>
                <mxCell id="EoE1X6qKimY-a85MW-ae-1" value="&lt;div style=&quot;text-align: justify; font-size: 24px;&quot;&gt;&lt;ul style=&quot;font-size: 24px;&quot;&gt;&lt;li style=&quot;font-size: 24px;&quot;&gt;&lt;span style=&quot;background-color: initial; font-size: 24px;&quot;&gt;Empresas de hospedagem;&lt;/span&gt;&lt;/li&gt;&lt;li style=&quot;font-size: 24px;&quot;&gt;&lt;span style=&quot;background-color: initial; font-size: 24px;&quot;&gt;Empresas de cibersegurança;&lt;/span&gt;&lt;/li&gt;&lt;li style=&quot;font-size: 24px;&quot;&gt;Desenvolvedores;&lt;/li&gt;&lt;li style=&quot;font-size: 24px;&quot;&gt;Colaboradores;&lt;/li&gt;&lt;/ul&gt;&lt;/div&gt;" style="text;align=left;verticalAlign=middle;resizable=0;points=[];autosize=1;strokeColor=none;fillColor=none;fontSize=24;glass=0;html=1;rotation=0;" vertex="1" parent="1">
                    <mxGeometry x="130" y="325" width="380" height="200" relative="1" as="geometry">
                        <mxPoint x="120" y="315" as="offset"/>
                    </mxGeometry>
                </mxCell>
            </root>
        </mxGraphModel>
    </diagram>
    <diagram id="QSi3XI_juUMkF02PZ6hX" name="Diagrama de Casos de Uso">
        <mxGraphModel dx="1267" dy="739" grid="1" gridSize="10" guides="1" tooltips="1" connect="1" arrows="0" fold="1" page="1" pageScale="1" pageWidth="583" pageHeight="827" math="0" shadow="0">
            <root>
                <mxCell id="0"/>
                <mxCell id="1" parent="0"/>
                <mxCell id="Q_eVd38Q389JlHvOjsAW-1" value="&lt;h1 style=&quot;font-size: 16px;&quot;&gt;Site do Projeto Lumos (sistema de authenticação)&lt;/h1&gt;" style="rounded=0;whiteSpace=wrap;html=1;verticalAlign=top;spacing=0;fontSize=16;movable=1;resizable=1;rotatable=1;deletable=1;editable=1;locked=0;connectable=1;" parent="1" vertex="1">
                    <mxGeometry x="76.5" width="413.5" height="780" as="geometry"/>
                </mxCell>
                <mxCell id="Q_eVd38Q389JlHvOjsAW-6" style="edgeStyle=entityRelationEdgeStyle;orthogonalLoop=1;jettySize=auto;html=1;exitX=1;exitY=0.3333333333333333;exitDx=0;exitDy=0;exitPerimeter=0;entryX=0;entryY=0.5;entryDx=0;entryDy=0;fontColor=#A680B8;endArrow=none;endFill=0;curved=1;movable=1;resizable=1;rotatable=1;deletable=1;editable=1;connectable=1;" parent="1" source="YRNB8jHSgxTFGruGbvp4-3" target="YRNB8jHSgxTFGruGbvp4-5" edge="1">
                    <mxGeometry relative="1" as="geometry"/>
                </mxCell>
                <mxCell id="Q_eVd38Q389JlHvOjsAW-11" style="edgeStyle=entityRelationEdgeStyle;orthogonalLoop=1;jettySize=auto;html=1;exitX=1;exitY=0.3333333333333333;exitDx=0;exitDy=0;exitPerimeter=0;entryX=0;entryY=0.5;entryDx=0;entryDy=0;endArrow=none;endFill=0;curved=1;movable=1;resizable=1;rotatable=1;deletable=1;editable=1;connectable=1;" parent="1" source="YRNB8jHSgxTFGruGbvp4-3" target="YRNB8jHSgxTFGruGbvp4-4" edge="1">
                    <mxGeometry relative="1" as="geometry"/>
                </mxCell>
                <mxCell id="s6DBIZjvwE8Q6ncKmdPa-1" style="edgeStyle=entityRelationEdgeStyle;html=1;exitX=1;exitY=0.3333333333333333;exitDx=0;exitDy=0;exitPerimeter=0;entryX=0;entryY=0.5;entryDx=0;entryDy=0;endArrow=none;endFill=0;curved=1;movable=1;resizable=1;rotatable=1;deletable=1;editable=1;connectable=1;" parent="1" source="YRNB8jHSgxTFGruGbvp4-3" target="Q_eVd38Q389JlHvOjsAW-16" edge="1">
                    <mxGeometry relative="1" as="geometry"/>
                </mxCell>
                <mxCell id="YRNB8jHSgxTFGruGbvp4-3" value="Usuário" style="shape=umlActor;verticalLabelPosition=bottom;verticalAlign=top;html=1;movable=1;resizable=1;rotatable=1;deletable=1;editable=1;connectable=1;" parent="1" vertex="1">
                    <mxGeometry y="354" width="60" height="120" as="geometry"/>
                </mxCell>
                <mxCell id="Q_eVd38Q389JlHvOjsAW-12" style="orthogonalLoop=1;jettySize=auto;html=1;exitX=1;exitY=0.5;exitDx=0;exitDy=0;entryX=0;entryY=0.5;entryDx=0;entryDy=0;endArrow=none;endFill=0;startArrow=classic;startFill=1;dashed=1;strokeWidth=2;movable=1;resizable=1;rotatable=1;deletable=1;editable=1;connectable=1;" parent="1" source="YRNB8jHSgxTFGruGbvp4-4" target="Q_eVd38Q389JlHvOjsAW-9" edge="1">
                    <mxGeometry relative="1" as="geometry"/>
                </mxCell>
                <mxCell id="Q_eVd38Q389JlHvOjsAW-13" value="&amp;lt;&amp;lt;extend&amp;gt;&amp;gt;" style="edgeLabel;html=1;align=center;verticalAlign=middle;resizable=1;points=[];movable=1;rotatable=1;deletable=1;editable=1;connectable=1;" parent="Q_eVd38Q389JlHvOjsAW-12" vertex="1" connectable="0">
                    <mxGeometry x="0.3776" y="-1" relative="1" as="geometry">
                        <mxPoint x="-13" y="1" as="offset"/>
                    </mxGeometry>
                </mxCell>
                <mxCell id="Q_eVd38Q389JlHvOjsAW-14" style="orthogonalLoop=1;jettySize=auto;html=1;exitX=1;exitY=0.5;exitDx=0;exitDy=0;entryX=0;entryY=0.5;entryDx=0;entryDy=0;strokeWidth=2;dashed=1;movable=1;resizable=1;rotatable=1;deletable=1;editable=1;connectable=1;" parent="1" source="YRNB8jHSgxTFGruGbvp4-4" target="Q_eVd38Q389JlHvOjsAW-10" edge="1">
                    <mxGeometry relative="1" as="geometry"/>
                </mxCell>
                <mxCell id="Q_eVd38Q389JlHvOjsAW-15" value="&amp;lt;&amp;lt;include&amp;gt;&amp;gt;" style="edgeLabel;html=1;align=center;verticalAlign=middle;resizable=1;points=[];movable=1;rotatable=1;deletable=1;editable=1;connectable=1;" parent="Q_eVd38Q389JlHvOjsAW-14" vertex="1" connectable="0">
                    <mxGeometry x="0.1028" y="2" relative="1" as="geometry">
                        <mxPoint as="offset"/>
                    </mxGeometry>
                </mxCell>
                <mxCell id="YRNB8jHSgxTFGruGbvp4-4" value="Fazer login" style="ellipse;whiteSpace=wrap;html=1;movable=1;resizable=1;rotatable=1;deletable=1;editable=1;connectable=1;" parent="1" vertex="1">
                    <mxGeometry x="129" y="360" width="140" height="70" as="geometry"/>
                </mxCell>
                <mxCell id="Q_eVd38Q389JlHvOjsAW-7" style="edgeStyle=entityRelationEdgeStyle;orthogonalLoop=1;jettySize=auto;html=1;exitX=1;exitY=0.5;exitDx=0;exitDy=0;entryX=0;entryY=0.5;entryDx=0;entryDy=0;endArrow=none;endFill=0;curved=1;movable=1;resizable=1;rotatable=1;deletable=1;editable=1;connectable=1;" parent="1" source="YRNB8jHSgxTFGruGbvp4-5" target="Q_eVd38Q389JlHvOjsAW-4" edge="1">
                    <mxGeometry relative="1" as="geometry"/>
                </mxCell>
                <mxCell id="YRNB8jHSgxTFGruGbvp4-5" value="Fazer cadastro" style="ellipse;whiteSpace=wrap;html=1;movable=1;resizable=1;rotatable=1;deletable=1;editable=1;connectable=1;" parent="1" vertex="1">
                    <mxGeometry x="152" y="170" width="140" height="70" as="geometry"/>
                </mxCell>
                <mxCell id="Q_eVd38Q389JlHvOjsAW-4" value="Salvar cadastro" style="ellipse;whiteSpace=wrap;html=1;movable=1;resizable=1;rotatable=1;deletable=1;editable=1;connectable=1;" parent="1" vertex="1">
                    <mxGeometry x="320" y="80" width="140" height="70" as="geometry"/>
                </mxCell>
                <mxCell id="Q_eVd38Q389JlHvOjsAW-5" value="Banco de Dados" style="shape=umlActor;verticalLabelPosition=bottom;verticalAlign=top;html=1;" parent="1" vertex="1">
                    <mxGeometry x="506.5" y="354" width="60" height="120" as="geometry"/>
                </mxCell>
                <mxCell id="Q_eVd38Q389JlHvOjsAW-8" style="edgeStyle=entityRelationEdgeStyle;orthogonalLoop=1;jettySize=auto;html=1;exitX=1;exitY=0.5;exitDx=0;exitDy=0;entryX=0;entryY=0.3333333333333333;entryDx=0;entryDy=0;entryPerimeter=0;endArrow=none;endFill=0;curved=1;" parent="1" source="Q_eVd38Q389JlHvOjsAW-4" target="Q_eVd38Q389JlHvOjsAW-5" edge="1">
                    <mxGeometry relative="1" as="geometry"/>
                </mxCell>
                <mxCell id="Q_eVd38Q389JlHvOjsAW-9" value="Exibir erro de login" style="ellipse;whiteSpace=wrap;html=1;movable=1;resizable=1;rotatable=1;deletable=1;editable=1;connectable=1;" parent="1" vertex="1">
                    <mxGeometry x="310" y="250" width="140" height="70" as="geometry"/>
                </mxCell>
                <mxCell id="Q_eVd38Q389JlHvOjsAW-10" value="Verificar credenciais" style="ellipse;whiteSpace=wrap;html=1;movable=1;resizable=1;rotatable=1;deletable=1;editable=1;connectable=1;" parent="1" vertex="1">
                    <mxGeometry x="292" y="460" width="140" height="70" as="geometry"/>
                </mxCell>
                <mxCell id="s6DBIZjvwE8Q6ncKmdPa-7" style="edgeStyle=entityRelationEdgeStyle;html=1;exitX=1;exitY=0.5;exitDx=0;exitDy=0;entryX=0;entryY=0.3333333333333333;entryDx=0;entryDy=0;entryPerimeter=0;endArrow=none;endFill=0;curved=1;" parent="1" source="Q_eVd38Q389JlHvOjsAW-16" target="Q_eVd38Q389JlHvOjsAW-5" edge="1">
                    <mxGeometry relative="1" as="geometry"/>
                </mxCell>
                <mxCell id="Q_eVd38Q389JlHvOjsAW-16" value="Buscar usuários" style="ellipse;whiteSpace=wrap;html=1;movable=1;resizable=1;rotatable=1;deletable=1;editable=1;connectable=1;" parent="1" vertex="1">
                    <mxGeometry x="240" y="570" width="140" height="70" as="geometry"/>
                </mxCell>
                <mxCell id="n9mStOcMw-Px6hJUN1te-42" value="&lt;h1 style=&quot;font-size: 16px;&quot;&gt;Site do Projeto Lumos (sistema de amizade)&lt;/h1&gt;" style="rounded=0;whiteSpace=wrap;html=1;verticalAlign=top;spacing=0;fontSize=16;movable=1;resizable=1;rotatable=1;deletable=1;editable=1;locked=0;connectable=1;" parent="1" vertex="1">
                    <mxGeometry x="80" y="827" width="410" height="783" as="geometry"/>
                </mxCell>
                <mxCell id="n9mStOcMw-Px6hJUN1te-43" value="&lt;h1 style=&quot;font-size: 16px;&quot;&gt;Site do Projeto Lumos (sistema de chat e outros)&lt;/h1&gt;" style="rounded=0;whiteSpace=wrap;html=1;verticalAlign=top;spacing=0;fontSize=16;movable=1;resizable=1;rotatable=1;deletable=1;editable=1;locked=0;connectable=1;" parent="1" vertex="1">
                    <mxGeometry x="79.25" y="1654" width="410.75" height="786" as="geometry"/>
                </mxCell>
                <mxCell id="n9mStOcMw-Px6hJUN1te-46" style="edgeStyle=entityRelationEdgeStyle;html=1;exitX=1;exitY=0.3333333333333333;exitDx=0;exitDy=0;exitPerimeter=0;entryX=0;entryY=0.5;entryDx=0;entryDy=0;endArrow=none;endFill=0;curved=1;movable=1;resizable=1;rotatable=1;deletable=1;editable=1;connectable=1;" parent="1" source="n9mStOcMw-Px6hJUN1te-53" target="n9mStOcMw-Px6hJUN1te-67" edge="1">
                    <mxGeometry relative="1" as="geometry"/>
                </mxCell>
                <mxCell id="n9mStOcMw-Px6hJUN1te-47" style="edgeStyle=entityRelationEdgeStyle;html=1;exitX=1;exitY=0.3333333333333333;exitDx=0;exitDy=0;exitPerimeter=0;entryX=0;entryY=0.5;entryDx=0;entryDy=0;endArrow=none;endFill=0;curved=1;movable=1;resizable=1;rotatable=1;deletable=1;editable=1;connectable=1;" parent="1" source="n9mStOcMw-Px6hJUN1te-53" target="n9mStOcMw-Px6hJUN1te-69" edge="1">
                    <mxGeometry relative="1" as="geometry"/>
                </mxCell>
                <mxCell id="n9mStOcMw-Px6hJUN1te-48" style="edgeStyle=entityRelationEdgeStyle;html=1;exitX=1;exitY=0.3333333333333333;exitDx=0;exitDy=0;exitPerimeter=0;entryX=0;entryY=0.5;entryDx=0;entryDy=0;endArrow=none;endFill=0;curved=1;movable=1;resizable=1;rotatable=1;deletable=1;editable=1;connectable=1;" parent="1" source="n9mStOcMw-Px6hJUN1te-53" target="n9mStOcMw-Px6hJUN1te-71" edge="1">
                    <mxGeometry relative="1" as="geometry"/>
                </mxCell>
                <mxCell id="n9mStOcMw-Px6hJUN1te-120" style="edgeStyle=orthogonalEdgeStyle;rounded=0;orthogonalLoop=1;jettySize=auto;html=1;exitX=1;exitY=0.3333333333333333;exitDx=0;exitDy=0;exitPerimeter=0;entryX=0;entryY=0.5;entryDx=0;entryDy=0;curved=1;endArrow=none;endFill=0;" parent="1" source="n9mStOcMw-Px6hJUN1te-53" target="n9mStOcMw-Px6hJUN1te-80" edge="1">
                    <mxGeometry relative="1" as="geometry"/>
                </mxCell>
                <mxCell id="n9mStOcMw-Px6hJUN1te-121" style="edgeStyle=orthogonalEdgeStyle;rounded=0;orthogonalLoop=1;jettySize=auto;html=1;exitX=1;exitY=0.3333333333333333;exitDx=0;exitDy=0;exitPerimeter=0;entryX=0;entryY=0.5;entryDx=0;entryDy=0;curved=1;endArrow=none;endFill=0;" parent="1" source="n9mStOcMw-Px6hJUN1te-53" target="n9mStOcMw-Px6hJUN1te-81" edge="1">
                    <mxGeometry relative="1" as="geometry"/>
                </mxCell>
                <mxCell id="n9mStOcMw-Px6hJUN1te-126" style="edgeStyle=orthogonalEdgeStyle;rounded=0;orthogonalLoop=1;jettySize=auto;html=1;exitX=1;exitY=0.3333333333333333;exitDx=0;exitDy=0;exitPerimeter=0;entryX=0;entryY=0.5;entryDx=0;entryDy=0;endArrow=none;endFill=0;curved=1;" parent="1" source="n9mStOcMw-Px6hJUN1te-53" target="n9mStOcMw-Px6hJUN1te-125" edge="1">
                    <mxGeometry relative="1" as="geometry">
                        <Array as="points">
                            <mxPoint x="110" y="1221"/>
                            <mxPoint x="110" y="1505"/>
                        </Array>
                    </mxGeometry>
                </mxCell>
                <mxCell id="n9mStOcMw-Px6hJUN1te-53" value="Usuário" style="shape=umlActor;verticalLabelPosition=bottom;verticalAlign=top;html=1;movable=1;resizable=1;rotatable=1;deletable=1;editable=1;connectable=1;" parent="1" vertex="1">
                    <mxGeometry y="1181" width="60" height="120" as="geometry"/>
                </mxCell>
                <mxCell id="n9mStOcMw-Px6hJUN1te-62" value="Banco de Dados" style="shape=umlActor;verticalLabelPosition=bottom;verticalAlign=top;html=1;" parent="1" vertex="1">
                    <mxGeometry x="506.5" y="1181" width="60" height="120" as="geometry"/>
                </mxCell>
                <mxCell id="n9mStOcMw-Px6hJUN1te-66" style="edgeStyle=entityRelationEdgeStyle;html=1;exitX=1;exitY=0.5;exitDx=0;exitDy=0;entryX=0;entryY=0.3333333333333333;entryDx=0;entryDy=0;entryPerimeter=0;endArrow=none;endFill=0;curved=1;" parent="1" source="n9mStOcMw-Px6hJUN1te-67" target="n9mStOcMw-Px6hJUN1te-62" edge="1">
                    <mxGeometry relative="1" as="geometry"/>
                </mxCell>
                <mxCell id="n9mStOcMw-Px6hJUN1te-67" value="Buscar usuários" style="ellipse;whiteSpace=wrap;html=1;movable=1;resizable=1;rotatable=1;deletable=1;editable=1;connectable=1;" parent="1" vertex="1">
                    <mxGeometry x="219" y="930" width="140" height="70" as="geometry"/>
                </mxCell>
                <mxCell id="n9mStOcMw-Px6hJUN1te-68" style="edgeStyle=entityRelationEdgeStyle;html=1;exitX=1;exitY=0.5;exitDx=0;exitDy=0;endArrow=none;endFill=0;entryX=0;entryY=0.3333333333333333;entryDx=0;entryDy=0;entryPerimeter=0;curved=1;" parent="1" source="n9mStOcMw-Px6hJUN1te-69" target="n9mStOcMw-Px6hJUN1te-62" edge="1">
                    <mxGeometry relative="1" as="geometry">
                        <mxPoint x="410" y="1270" as="targetPoint"/>
                    </mxGeometry>
                </mxCell>
                <mxCell id="n9mStOcMw-Px6hJUN1te-69" value="Enviar pedido de amizade" style="ellipse;whiteSpace=wrap;html=1;movable=1;resizable=1;rotatable=1;deletable=1;editable=1;connectable=1;" parent="1" vertex="1">
                    <mxGeometry x="219" y="1030" width="140" height="70" as="geometry"/>
                </mxCell>
                <mxCell id="n9mStOcMw-Px6hJUN1te-70" style="edgeStyle=entityRelationEdgeStyle;html=1;exitX=1;exitY=0.5;exitDx=0;exitDy=0;entryX=0;entryY=0.3333333333333333;entryDx=0;entryDy=0;entryPerimeter=0;endArrow=none;endFill=0;curved=1;" parent="1" source="n9mStOcMw-Px6hJUN1te-71" target="n9mStOcMw-Px6hJUN1te-62" edge="1">
                    <mxGeometry relative="1" as="geometry"/>
                </mxCell>
                <mxCell id="n9mStOcMw-Px6hJUN1te-80" value="Aceitar pedido de amizade" style="ellipse;whiteSpace=wrap;html=1;" parent="1" vertex="1">
                    <mxGeometry x="219" y="1140" width="140" height="70" as="geometry"/>
                </mxCell>
                <mxCell id="n9mStOcMw-Px6hJUN1te-81" value="Recusar pedido de amizae" style="ellipse;whiteSpace=wrap;html=1;" parent="1" vertex="1">
                    <mxGeometry x="222" y="1260" width="140" height="70" as="geometry"/>
                </mxCell>
                <mxCell id="n9mStOcMw-Px6hJUN1te-87" style="edgeStyle=entityRelationEdgeStyle;html=1;exitX=1;exitY=0.3333333333333333;exitDx=0;exitDy=0;exitPerimeter=0;entryX=0;entryY=0.5;entryDx=0;entryDy=0;endArrow=none;endFill=0;curved=1;movable=1;resizable=1;rotatable=1;deletable=1;editable=1;connectable=1;" parent="1" source="n9mStOcMw-Px6hJUN1te-91" target="n9mStOcMw-Px6hJUN1te-111" edge="1">
                    <mxGeometry relative="1" as="geometry"/>
                </mxCell>
                <mxCell id="n9mStOcMw-Px6hJUN1te-88" style="edgeStyle=entityRelationEdgeStyle;html=1;exitX=1;exitY=0.3333333333333333;exitDx=0;exitDy=0;exitPerimeter=0;entryX=0;entryY=0.5;entryDx=0;entryDy=0;endArrow=none;endFill=0;curved=1;movable=1;resizable=1;rotatable=1;deletable=1;editable=1;connectable=1;" parent="1" source="n9mStOcMw-Px6hJUN1te-91" target="n9mStOcMw-Px6hJUN1te-113" edge="1">
                    <mxGeometry relative="1" as="geometry"/>
                </mxCell>
                <mxCell id="n9mStOcMw-Px6hJUN1te-89" style="edgeStyle=entityRelationEdgeStyle;html=1;exitX=1;exitY=0.3333333333333333;exitDx=0;exitDy=0;exitPerimeter=0;entryX=0;entryY=0.5;entryDx=0;entryDy=0;endArrow=none;endFill=0;curved=1;movable=1;resizable=1;rotatable=1;deletable=1;editable=1;connectable=1;" parent="1" source="n9mStOcMw-Px6hJUN1te-91" target="n9mStOcMw-Px6hJUN1te-115" edge="1">
                    <mxGeometry relative="1" as="geometry"/>
                </mxCell>
                <mxCell id="n9mStOcMw-Px6hJUN1te-90" style="edgeStyle=entityRelationEdgeStyle;html=1;exitX=1;exitY=0.3333333333333333;exitDx=0;exitDy=0;exitPerimeter=0;entryX=0;entryY=0.5;entryDx=0;entryDy=0;endArrow=none;endFill=0;curved=1;movable=1;resizable=1;rotatable=1;deletable=1;editable=1;connectable=1;" parent="1" source="n9mStOcMw-Px6hJUN1te-91" target="n9mStOcMw-Px6hJUN1te-117" edge="1">
                    <mxGeometry relative="1" as="geometry"/>
                </mxCell>
                <mxCell id="n9mStOcMw-Px6hJUN1te-91" value="Usuário" style="shape=umlActor;verticalLabelPosition=bottom;verticalAlign=top;html=1;movable=1;resizable=1;rotatable=1;deletable=1;editable=1;connectable=1;" parent="1" vertex="1">
                    <mxGeometry y="2008" width="60" height="120" as="geometry"/>
                </mxCell>
                <mxCell id="n9mStOcMw-Px6hJUN1te-100" value="Banco de Dados" style="shape=umlActor;verticalLabelPosition=bottom;verticalAlign=top;html=1;" parent="1" vertex="1">
                    <mxGeometry x="506.5" y="2008" width="60" height="120" as="geometry"/>
                </mxCell>
                <mxCell id="n9mStOcMw-Px6hJUN1te-110" style="edgeStyle=entityRelationEdgeStyle;html=1;exitX=1;exitY=0.5;exitDx=0;exitDy=0;entryX=0;entryY=0.3333333333333333;entryDx=0;entryDy=0;entryPerimeter=0;endArrow=none;endFill=0;curved=1;" parent="1" source="n9mStOcMw-Px6hJUN1te-111" target="n9mStOcMw-Px6hJUN1te-100" edge="1">
                    <mxGeometry relative="1" as="geometry"/>
                </mxCell>
                <mxCell id="n9mStOcMw-Px6hJUN1te-111" value="Editar perfil" style="ellipse;whiteSpace=wrap;html=1;movable=1;resizable=1;rotatable=1;deletable=1;editable=1;connectable=1;" parent="1" vertex="1">
                    <mxGeometry x="219" y="2190" width="140" height="70" as="geometry"/>
                </mxCell>
                <mxCell id="n9mStOcMw-Px6hJUN1te-112" style="edgeStyle=entityRelationEdgeStyle;html=1;exitX=1;exitY=0.5;exitDx=0;exitDy=0;entryX=0;entryY=0.3333333333333333;entryDx=0;entryDy=0;entryPerimeter=0;endArrow=none;endFill=0;curved=1;" parent="1" source="n9mStOcMw-Px6hJUN1te-113" target="n9mStOcMw-Px6hJUN1te-100" edge="1">
                    <mxGeometry relative="1" as="geometry"/>
                </mxCell>
                <mxCell id="n9mStOcMw-Px6hJUN1te-113" value="Enviar mensagem" style="ellipse;whiteSpace=wrap;html=1;movable=1;resizable=1;rotatable=1;deletable=1;editable=1;connectable=1;" parent="1" vertex="1">
                    <mxGeometry x="222" y="1830" width="140" height="70" as="geometry"/>
                </mxCell>
                <mxCell id="n9mStOcMw-Px6hJUN1te-114" style="edgeStyle=entityRelationEdgeStyle;html=1;exitX=1;exitY=0.5;exitDx=0;exitDy=0;entryX=0;entryY=0.3333333333333333;entryDx=0;entryDy=0;entryPerimeter=0;endArrow=none;endFill=0;curved=1;" parent="1" source="n9mStOcMw-Px6hJUN1te-115" target="n9mStOcMw-Px6hJUN1te-100" edge="1">
                    <mxGeometry relative="1" as="geometry"/>
                </mxCell>
                <mxCell id="n9mStOcMw-Px6hJUN1te-115" value="Editar mensagem" style="ellipse;whiteSpace=wrap;html=1;movable=1;resizable=1;rotatable=1;deletable=1;editable=1;connectable=1;" parent="1" vertex="1">
                    <mxGeometry x="222" y="1938" width="140" height="70" as="geometry"/>
                </mxCell>
                <mxCell id="n9mStOcMw-Px6hJUN1te-116" style="edgeStyle=entityRelationEdgeStyle;html=1;exitX=1;exitY=0.5;exitDx=0;exitDy=0;entryX=0;entryY=0.3333333333333333;entryDx=0;entryDy=0;entryPerimeter=0;endArrow=none;endFill=0;curved=1;" parent="1" source="n9mStOcMw-Px6hJUN1te-117" target="n9mStOcMw-Px6hJUN1te-100" edge="1">
                    <mxGeometry relative="1" as="geometry"/>
                </mxCell>
                <mxCell id="n9mStOcMw-Px6hJUN1te-117" value="Remover mensagem" style="ellipse;whiteSpace=wrap;html=1;movable=1;resizable=1;rotatable=1;deletable=1;editable=1;connectable=1;" parent="1" vertex="1">
                    <mxGeometry x="222" y="2068" width="140" height="70" as="geometry"/>
                </mxCell>
                <mxCell id="n9mStOcMw-Px6hJUN1te-122" style="edgeStyle=orthogonalEdgeStyle;rounded=0;orthogonalLoop=1;jettySize=auto;html=1;exitX=1;exitY=0.5;exitDx=0;exitDy=0;entryX=0;entryY=0.3333333333333333;entryDx=0;entryDy=0;entryPerimeter=0;curved=1;endArrow=none;endFill=0;" parent="1" source="n9mStOcMw-Px6hJUN1te-80" target="n9mStOcMw-Px6hJUN1te-62" edge="1">
                    <mxGeometry relative="1" as="geometry"/>
                </mxCell>
                <mxCell id="n9mStOcMw-Px6hJUN1te-123" style="edgeStyle=orthogonalEdgeStyle;rounded=0;orthogonalLoop=1;jettySize=auto;html=1;exitX=1;exitY=0.5;exitDx=0;exitDy=0;entryX=0;entryY=0.3333333333333333;entryDx=0;entryDy=0;entryPerimeter=0;endArrow=none;endFill=0;curved=1;" parent="1" source="n9mStOcMw-Px6hJUN1te-81" target="n9mStOcMw-Px6hJUN1te-62" edge="1">
                    <mxGeometry relative="1" as="geometry"/>
                </mxCell>
                <mxCell id="n9mStOcMw-Px6hJUN1te-71" value="Desfazer amizade" style="ellipse;whiteSpace=wrap;html=1;movable=1;resizable=1;rotatable=1;deletable=1;editable=1;connectable=1;" parent="1" vertex="1">
                    <mxGeometry x="219" y="1360" width="140" height="70" as="geometry"/>
                </mxCell>
                <mxCell id="n9mStOcMw-Px6hJUN1te-125" value="Bloquear usuário" style="ellipse;whiteSpace=wrap;html=1;" parent="1" vertex="1">
                    <mxGeometry x="219" y="1470" width="140" height="70" as="geometry"/>
                </mxCell>
                <mxCell id="n9mStOcMw-Px6hJUN1te-127" style="edgeStyle=orthogonalEdgeStyle;rounded=0;orthogonalLoop=1;jettySize=auto;html=1;exitX=1;exitY=0.5;exitDx=0;exitDy=0;entryX=0;entryY=0.3333333333333333;entryDx=0;entryDy=0;entryPerimeter=0;curved=1;endArrow=none;endFill=0;" parent="1" source="n9mStOcMw-Px6hJUN1te-125" target="n9mStOcMw-Px6hJUN1te-62" edge="1">
                    <mxGeometry relative="1" as="geometry">
                        <Array as="points">
                            <mxPoint x="460" y="1505"/>
                            <mxPoint x="460" y="1221"/>
                        </Array>
                    </mxGeometry>
                </mxCell>
            </root>
        </mxGraphModel>
    </diagram>
    <diagram id="PJmfKubUIohAubaXC0qd" name="Diagrama de Classes">
        <mxGraphModel dx="1267" dy="739" grid="1" gridSize="10" guides="1" tooltips="1" connect="1" arrows="1" fold="1" page="1" pageScale="1" pageWidth="827" pageHeight="1169" math="0" shadow="0">
            <root>
                <mxCell id="0"/>
                <mxCell id="1" parent="0"/>
                <mxCell id="BHqTzuefqpdJsz0bf4JD-1" value="Usuario" style="swimlane;fontStyle=1;align=center;verticalAlign=top;childLayout=stackLayout;horizontal=1;startSize=25.1;horizontalStack=0;resizeParent=1;resizeParentMax=0;resizeLast=0;collapsible=0;marginBottom=0;" parent="1" vertex="1">
                    <mxGeometry x="40" y="40" width="200" height="583.1" as="geometry"/>
                </mxCell>
                <mxCell id="BHqTzuefqpdJsz0bf4JD-2" value="- id: Int" style="text;strokeColor=none;fillColor=none;align=left;verticalAlign=top;spacingLeft=4;spacingRight=4;overflow=hidden;rotatable=0;points=[[0,0.5],[1,0.5]];portConstraint=eastwest;" parent="BHqTzuefqpdJsz0bf4JD-1" vertex="1">
                    <mxGeometry y="25.1" width="200" height="25" as="geometry"/>
                </mxCell>
                <mxCell id="BHqTzuefqpdJsz0bf4JD-3" value="- nome: String" style="text;strokeColor=none;fillColor=none;align=left;verticalAlign=top;spacingLeft=4;spacingRight=4;overflow=hidden;rotatable=0;points=[[0,0.5],[1,0.5]];portConstraint=eastwest;" parent="BHqTzuefqpdJsz0bf4JD-1" vertex="1">
                    <mxGeometry y="50.1" width="200" height="25" as="geometry"/>
                </mxCell>
                <mxCell id="6oBDPIl8CY1EPiL309ic-19" value="- sobrenome: String" style="text;strokeColor=none;fillColor=none;align=left;verticalAlign=top;spacingLeft=4;spacingRight=4;overflow=hidden;rotatable=0;points=[[0,0.5],[1,0.5]];portConstraint=eastwest;" parent="BHqTzuefqpdJsz0bf4JD-1" vertex="1">
                    <mxGeometry y="75.1" width="200" height="25" as="geometry"/>
                </mxCell>
                <mxCell id="BHqTzuefqpdJsz0bf4JD-4" value="- email: String" style="text;strokeColor=none;fillColor=none;align=left;verticalAlign=top;spacingLeft=4;spacingRight=4;overflow=hidden;rotatable=0;points=[[0,0.5],[1,0.5]];portConstraint=eastwest;" parent="BHqTzuefqpdJsz0bf4JD-1" vertex="1">
                    <mxGeometry y="100.1" width="200" height="25" as="geometry"/>
                </mxCell>
                <mxCell id="BHqTzuefqpdJsz0bf4JD-5" value="- senha: String" style="text;strokeColor=none;fillColor=none;align=left;verticalAlign=top;spacingLeft=4;spacingRight=4;overflow=hidden;rotatable=0;points=[[0,0.5],[1,0.5]];portConstraint=eastwest;" parent="BHqTzuefqpdJsz0bf4JD-1" vertex="1">
                    <mxGeometry y="125.1" width="200" height="25" as="geometry"/>
                </mxCell>
                <mxCell id="BHqTzuefqpdJsz0bf4JD-6" value="- telefone: String" style="text;strokeColor=none;fillColor=none;align=left;verticalAlign=top;spacingLeft=4;spacingRight=4;overflow=hidden;rotatable=0;points=[[0,0.5],[1,0.5]];portConstraint=eastwest;" parent="BHqTzuefqpdJsz0bf4JD-1" vertex="1">
                    <mxGeometry y="150.1" width="200" height="25" as="geometry"/>
                </mxCell>
                <mxCell id="6oBDPIl8CY1EPiL309ic-18" value="- foto: String" style="text;strokeColor=none;fillColor=none;align=left;verticalAlign=top;spacingLeft=4;spacingRight=4;overflow=hidden;rotatable=0;points=[[0,0.5],[1,0.5]];portConstraint=eastwest;" parent="BHqTzuefqpdJsz0bf4JD-1" vertex="1">
                    <mxGeometry y="175.1" width="200" height="25" as="geometry"/>
                </mxCell>
                <mxCell id="6oBDPIl8CY1EPiL309ic-22" value="- status: String" style="text;strokeColor=none;fillColor=none;align=left;verticalAlign=top;spacingLeft=4;spacingRight=4;overflow=hidden;rotatable=0;points=[[0,0.5],[1,0.5]];portConstraint=eastwest;" parent="BHqTzuefqpdJsz0bf4JD-1" vertex="1">
                    <mxGeometry y="200.1" width="200" height="25" as="geometry"/>
                </mxCell>
                <mxCell id="6oBDPIl8CY1EPiL309ic-21" value="- eula: Boolean" style="text;strokeColor=none;fillColor=none;align=left;verticalAlign=top;spacingLeft=4;spacingRight=4;overflow=hidden;rotatable=0;points=[[0,0.5],[1,0.5]];portConstraint=eastwest;" parent="BHqTzuefqpdJsz0bf4JD-1" vertex="1">
                    <mxGeometry y="225.1" width="200" height="25" as="geometry"/>
                </mxCell>
                <mxCell id="BHqTzuefqpdJsz0bf4JD-7" style="line;strokeWidth=1;fillColor=none;align=left;verticalAlign=middle;spacingTop=-1;spacingLeft=3;spacingRight=3;rotatable=0;labelPosition=right;points=[];portConstraint=eastwest;strokeColor=inherit;" parent="BHqTzuefqpdJsz0bf4JD-1" vertex="1">
                    <mxGeometry y="250.1" width="200" height="8" as="geometry"/>
                </mxCell>
                <mxCell id="6oBDPIl8CY1EPiL309ic-25" value="+ registrar()" style="text;strokeColor=none;fillColor=none;align=left;verticalAlign=top;spacingLeft=4;spacingRight=4;overflow=hidden;rotatable=0;points=[[0,0.5],[1,0.5]];portConstraint=eastwest;" parent="BHqTzuefqpdJsz0bf4JD-1" vertex="1">
                    <mxGeometry y="258.1" width="200" height="25" as="geometry"/>
                </mxCell>
                <mxCell id="UZuzvtvvyp7wb2oSeSNY-12" value="+ registrar()" style="text;strokeColor=none;fillColor=none;align=left;verticalAlign=top;spacingLeft=4;spacingRight=4;overflow=hidden;rotatable=0;points=[[0,0.5],[1,0.5]];portConstraint=eastwest;" parent="BHqTzuefqpdJsz0bf4JD-1" vertex="1">
                    <mxGeometry y="283.1" width="200" height="25" as="geometry"/>
                </mxCell>
                <mxCell id="6oBDPIl8CY1EPiL309ic-24" value="+ login()" style="text;strokeColor=none;fillColor=none;align=left;verticalAlign=top;spacingLeft=4;spacingRight=4;overflow=hidden;rotatable=0;points=[[0,0.5],[1,0.5]];portConstraint=eastwest;" parent="BHqTzuefqpdJsz0bf4JD-1" vertex="1">
                    <mxGeometry y="308.1" width="200" height="25" as="geometry"/>
                </mxCell>
                <mxCell id="UZuzvtvvyp7wb2oSeSNY-1" style="text;strokeColor=none;fillColor=none;align=left;verticalAlign=top;spacingLeft=4;spacingRight=4;overflow=hidden;rotatable=0;points=[[0,0.5],[1,0.5]];portConstraint=eastwest;" parent="BHqTzuefqpdJsz0bf4JD-1" vertex="1">
                    <mxGeometry y="333.1" width="200" height="25" as="geometry"/>
                </mxCell>
                <mxCell id="BHqTzuefqpdJsz0bf4JD-8" value="+ buscarUsuarios()" style="text;strokeColor=none;fillColor=none;align=left;verticalAlign=top;spacingLeft=4;spacingRight=4;overflow=hidden;rotatable=0;points=[[0,0.5],[1,0.5]];portConstraint=eastwest;" parent="BHqTzuefqpdJsz0bf4JD-1" vertex="1">
                    <mxGeometry y="358.1" width="200" height="25" as="geometry"/>
                </mxCell>
                <mxCell id="BHqTzuefqpdJsz0bf4JD-9" value="+ adicionarAmigo()" style="text;strokeColor=none;fillColor=none;align=left;verticalAlign=top;spacingLeft=4;spacingRight=4;overflow=hidden;rotatable=0;points=[[0,0.5],[1,0.5]];portConstraint=eastwest;" parent="BHqTzuefqpdJsz0bf4JD-1" vertex="1">
                    <mxGeometry y="383.1" width="200" height="25" as="geometry"/>
                </mxCell>
                <mxCell id="BHqTzuefqpdJsz0bf4JD-10" value="+ aceitarAmizade()" style="text;strokeColor=none;fillColor=none;align=left;verticalAlign=top;spacingLeft=4;spacingRight=4;overflow=hidden;rotatable=0;points=[[0,0.5],[1,0.5]];portConstraint=eastwest;" parent="BHqTzuefqpdJsz0bf4JD-1" vertex="1">
                    <mxGeometry y="408.1" width="200" height="25" as="geometry"/>
                </mxCell>
                <mxCell id="BHqTzuefqpdJsz0bf4JD-11" value="+ recusarAmizade()" style="text;strokeColor=none;fillColor=none;align=left;verticalAlign=top;spacingLeft=4;spacingRight=4;overflow=hidden;rotatable=0;points=[[0,0.5],[1,0.5]];portConstraint=eastwest;" parent="BHqTzuefqpdJsz0bf4JD-1" vertex="1">
                    <mxGeometry y="433.1" width="200" height="25" as="geometry"/>
                </mxCell>
                <mxCell id="6oBDPIl8CY1EPiL309ic-26" value="+ desfazerAmizade()" style="text;strokeColor=none;fillColor=none;align=left;verticalAlign=top;spacingLeft=4;spacingRight=4;overflow=hidden;rotatable=0;points=[[0,0.5],[1,0.5]];portConstraint=eastwest;" parent="BHqTzuefqpdJsz0bf4JD-1" vertex="1">
                    <mxGeometry y="458.1" width="200" height="25" as="geometry"/>
                </mxCell>
                <mxCell id="6oBDPIl8CY1EPiL309ic-23" style="text;strokeColor=none;fillColor=none;align=left;verticalAlign=top;spacingLeft=4;spacingRight=4;overflow=hidden;rotatable=0;points=[[0,0.5],[1,0.5]];portConstraint=eastwest;" parent="BHqTzuefqpdJsz0bf4JD-1" vertex="1">
                    <mxGeometry y="483.1" width="200" height="25" as="geometry"/>
                </mxCell>
                <mxCell id="UZuzvtvvyp7wb2oSeSNY-2" value="+ enviarMensagem()" style="text;strokeColor=none;fillColor=none;align=left;verticalAlign=top;spacingLeft=4;spacingRight=4;overflow=hidden;rotatable=0;points=[[0,0.5],[1,0.5]];portConstraint=eastwest;" parent="BHqTzuefqpdJsz0bf4JD-1" vertex="1">
                    <mxGeometry y="508.1" width="200" height="25" as="geometry"/>
                </mxCell>
                <mxCell id="UZuzvtvvyp7wb2oSeSNY-4" value="+ editarMensagem()" style="text;strokeColor=none;fillColor=none;align=left;verticalAlign=top;spacingLeft=4;spacingRight=4;overflow=hidden;rotatable=0;points=[[0,0.5],[1,0.5]];portConstraint=eastwest;" parent="BHqTzuefqpdJsz0bf4JD-1" vertex="1">
                    <mxGeometry y="533.1" width="200" height="25" as="geometry"/>
                </mxCell>
                <mxCell id="UZuzvtvvyp7wb2oSeSNY-3" value="+ deletarMensagem()" style="text;strokeColor=none;fillColor=none;align=left;verticalAlign=top;spacingLeft=4;spacingRight=4;overflow=hidden;rotatable=0;points=[[0,0.5],[1,0.5]];portConstraint=eastwest;" parent="BHqTzuefqpdJsz0bf4JD-1" vertex="1">
                    <mxGeometry y="558.1" width="200" height="25" as="geometry"/>
                </mxCell>
                <mxCell id="UZuzvtvvyp7wb2oSeSNY-5" value="Amizade" style="swimlane;fontStyle=1;align=center;verticalAlign=top;childLayout=stackLayout;horizontal=1;startSize=26;horizontalStack=0;resizeParent=1;resizeParentMax=0;resizeLast=0;collapsible=1;marginBottom=0;whiteSpace=wrap;html=1;" parent="1" vertex="1">
                    <mxGeometry x="470" y="60" width="160" height="164" as="geometry">
                        <mxRectangle x="330" y="150" width="100" height="30" as="alternateBounds"/>
                    </mxGeometry>
                </mxCell>
                <mxCell id="moJle3LMVBiu0ebDuG6K-7" value="- id: Int" style="text;strokeColor=none;fillColor=none;align=left;verticalAlign=top;spacingLeft=4;spacingRight=4;overflow=hidden;rotatable=0;points=[[0,0.5],[1,0.5]];portConstraint=eastwest;whiteSpace=wrap;html=1;" vertex="1" parent="UZuzvtvvyp7wb2oSeSNY-5">
                    <mxGeometry y="26" width="160" height="26" as="geometry"/>
                </mxCell>
                <mxCell id="UZuzvtvvyp7wb2oSeSNY-6" value="-&amp;nbsp;status:&amp;nbsp; String" style="text;strokeColor=none;fillColor=none;align=left;verticalAlign=top;spacingLeft=4;spacingRight=4;overflow=hidden;rotatable=0;points=[[0,0.5],[1,0.5]];portConstraint=eastwest;whiteSpace=wrap;html=1;" parent="UZuzvtvvyp7wb2oSeSNY-5" vertex="1">
                    <mxGeometry y="52" width="160" height="26" as="geometry"/>
                </mxCell>
                <mxCell id="UZuzvtvvyp7wb2oSeSNY-10" value="- UsuarioId: Int" style="text;strokeColor=none;fillColor=none;align=left;verticalAlign=top;spacingLeft=4;spacingRight=4;overflow=hidden;rotatable=0;points=[[0,0.5],[1,0.5]];portConstraint=eastwest;whiteSpace=wrap;html=1;" parent="UZuzvtvvyp7wb2oSeSNY-5" vertex="1">
                    <mxGeometry y="78" width="160" height="26" as="geometry"/>
                </mxCell>
                <mxCell id="UZuzvtvvyp7wb2oSeSNY-11" value="- AmigoId: Int" style="text;strokeColor=none;fillColor=none;align=left;verticalAlign=top;spacingLeft=4;spacingRight=4;overflow=hidden;rotatable=0;points=[[0,0.5],[1,0.5]];portConstraint=eastwest;whiteSpace=wrap;html=1;" parent="UZuzvtvvyp7wb2oSeSNY-5" vertex="1">
                    <mxGeometry y="104" width="160" height="26" as="geometry"/>
                </mxCell>
                <mxCell id="UZuzvtvvyp7wb2oSeSNY-7" value="" style="line;strokeWidth=1;fillColor=none;align=left;verticalAlign=middle;spacingTop=-1;spacingLeft=3;spacingRight=3;rotatable=0;labelPosition=right;points=[];portConstraint=eastwest;strokeColor=inherit;" parent="UZuzvtvvyp7wb2oSeSNY-5" vertex="1">
                    <mxGeometry y="130" width="160" height="8" as="geometry"/>
                </mxCell>
                <mxCell id="UZuzvtvvyp7wb2oSeSNY-8" value="&amp;nbsp;" style="text;strokeColor=none;fillColor=none;align=left;verticalAlign=top;spacingLeft=4;spacingRight=4;overflow=hidden;rotatable=0;points=[[0,0.5],[1,0.5]];portConstraint=eastwest;whiteSpace=wrap;html=1;" parent="UZuzvtvvyp7wb2oSeSNY-5" vertex="1">
                    <mxGeometry y="138" width="160" height="26" as="geometry"/>
                </mxCell>
                <mxCell id="UZuzvtvvyp7wb2oSeSNY-13" style="edgeStyle=orthogonalEdgeStyle;rounded=0;orthogonalLoop=1;jettySize=auto;html=1;exitX=1;exitY=0.5;exitDx=0;exitDy=0;entryX=0;entryY=0.5;entryDx=0;entryDy=0;endArrow=none;endFill=0;" parent="1" source="BHqTzuefqpdJsz0bf4JD-2" target="UZuzvtvvyp7wb2oSeSNY-10" edge="1">
                    <mxGeometry relative="1" as="geometry"/>
                </mxCell>
                <mxCell id="UZuzvtvvyp7wb2oSeSNY-14" value="0..*" style="edgeLabel;html=1;align=center;verticalAlign=middle;resizable=0;points=[];" parent="UZuzvtvvyp7wb2oSeSNY-13" vertex="1" connectable="0">
                    <mxGeometry x="0.8481" y="2" relative="1" as="geometry">
                        <mxPoint as="offset"/>
                    </mxGeometry>
                </mxCell>
                <mxCell id="moJle3LMVBiu0ebDuG6K-1" value="Mensagem" style="swimlane;fontStyle=1;align=center;verticalAlign=top;childLayout=stackLayout;horizontal=1;startSize=26;horizontalStack=0;resizeParent=1;resizeParentMax=0;resizeLast=0;collapsible=1;marginBottom=0;fontSize=16;swimlaneLine=1;" vertex="1" parent="1">
                    <mxGeometry x="480" y="300" width="160" height="216" as="geometry"/>
                </mxCell>
                <mxCell id="moJle3LMVBiu0ebDuG6K-2" value="- id: Int" style="text;strokeColor=none;fillColor=none;align=left;verticalAlign=top;spacingLeft=4;spacingRight=4;overflow=hidden;rotatable=0;points=[[0,0.5],[1,0.5]];portConstraint=eastwest;fontSize=16;" vertex="1" parent="moJle3LMVBiu0ebDuG6K-1">
                    <mxGeometry y="26" width="160" height="26" as="geometry"/>
                </mxCell>
                <mxCell id="moJle3LMVBiu0ebDuG6K-6" value="- destinatarioId: Int" style="text;strokeColor=none;fillColor=none;align=left;verticalAlign=top;spacingLeft=4;spacingRight=4;overflow=hidden;rotatable=0;points=[[0,0.5],[1,0.5]];portConstraint=eastwest;fontSize=16;" vertex="1" parent="moJle3LMVBiu0ebDuG6K-1">
                    <mxGeometry y="52" width="160" height="26" as="geometry"/>
                </mxCell>
                <mxCell id="moJle3LMVBiu0ebDuG6K-5" value="- remetenteId: Int" style="text;strokeColor=none;fillColor=none;align=left;verticalAlign=top;spacingLeft=4;spacingRight=4;overflow=hidden;rotatable=0;points=[[0,0.5],[1,0.5]];portConstraint=eastwest;fontSize=16;" vertex="1" parent="moJle3LMVBiu0ebDuG6K-1">
                    <mxGeometry y="78" width="160" height="26" as="geometry"/>
                </mxCell>
                <mxCell id="moJle3LMVBiu0ebDuG6K-8" value="- conteudo: String" style="text;strokeColor=none;fillColor=none;align=left;verticalAlign=top;spacingLeft=4;spacingRight=4;overflow=hidden;rotatable=0;points=[[0,0.5],[1,0.5]];portConstraint=eastwest;fontSize=16;" vertex="1" parent="moJle3LMVBiu0ebDuG6K-1">
                    <mxGeometry y="104" width="160" height="26" as="geometry"/>
                </mxCell>
                <mxCell id="moJle3LMVBiu0ebDuG6K-9" value="+ createdAt: Date" style="text;strokeColor=none;fillColor=none;align=left;verticalAlign=top;spacingLeft=4;spacingRight=4;overflow=hidden;rotatable=0;points=[[0,0.5],[1,0.5]];portConstraint=eastwest;fontSize=16;" vertex="1" parent="moJle3LMVBiu0ebDuG6K-1">
                    <mxGeometry y="130" width="160" height="26" as="geometry"/>
                </mxCell>
                <mxCell id="moJle3LMVBiu0ebDuG6K-10" value="+ updatedAt: Date" style="text;strokeColor=none;fillColor=none;align=left;verticalAlign=top;spacingLeft=4;spacingRight=4;overflow=hidden;rotatable=0;points=[[0,0.5],[1,0.5]];portConstraint=eastwest;fontSize=16;" vertex="1" parent="moJle3LMVBiu0ebDuG6K-1">
                    <mxGeometry y="156" width="160" height="26" as="geometry"/>
                </mxCell>
                <mxCell id="moJle3LMVBiu0ebDuG6K-3" value="" style="line;strokeWidth=1;fillColor=none;align=left;verticalAlign=middle;spacingTop=-1;spacingLeft=3;spacingRight=3;rotatable=0;labelPosition=right;points=[];portConstraint=eastwest;strokeColor=inherit;fontSize=16;" vertex="1" parent="moJle3LMVBiu0ebDuG6K-1">
                    <mxGeometry y="182" width="160" height="8" as="geometry"/>
                </mxCell>
                <mxCell id="moJle3LMVBiu0ebDuG6K-4" value=" " style="text;strokeColor=none;fillColor=none;align=left;verticalAlign=top;spacingLeft=4;spacingRight=4;overflow=hidden;rotatable=0;points=[[0,0.5],[1,0.5]];portConstraint=eastwest;fontSize=16;" vertex="1" parent="moJle3LMVBiu0ebDuG6K-1">
                    <mxGeometry y="190" width="160" height="26" as="geometry"/>
                </mxCell>
            </root>
        </mxGraphModel>
    </diagram>
</mxfile>